<svg xmlns="http://www.w3.org/2000/svg" xmlns:xlink="http://www.w3.org/1999/xlink" contentStyleType="text/css" height="1363px" preserveAspectRatio="none" style="width:1891px;height:1363px;background:#FFFFFF;" version="1.1" viewBox="0 0 1891 1363" width="1891px" zoomAndPan="magnify"><defs/><g><!--cluster Browser--><g id="cluster_Browser"><polygon fill="none" points="1012,16,1022,6,1453,6,1453,442,1443,452,1012,452,1012,16" style="stroke:#181818;stroke-width:1.0;"/><line style="stroke:#181818;stroke-width:1.0;" x1="1443" x2="1453" y1="16" y2="6"/><line style="stroke:#181818;stroke-width:1.0;" x1="1012" x2="1443" y1="16" y2="16"/><line style="stroke:#181818;stroke-width:1.0;" x1="1443" x2="1443" y1="16" y2="452"/><text fill="#000000" font-family="sans-serif" font-size="14" font-weight="bold" lengthAdjust="spacing" textLength="218.6064" x="1119.1968" y="33.5332">Browser (Chrome / Edge / Safari)</text><text fill="#000000" font-family="sans-serif" font-size="14" font-weight="bold" lengthAdjust="spacing" textLength="172.7988" x="1142.1006" y="51.1426">360-1920 px, 10.7.1, 10.7.2</text></g><!--cluster Client--><g id="cluster_Client"><rect fill="none" height="355" rx="2.5" ry="2.5" style="stroke:#181818;stroke-width:1.0;" width="393" x="1036" y="73"/><text fill="#000000" font-family="sans-serif" font-size="14" font-weight="bold" lengthAdjust="spacing" textLength="131.4551" x="1166.7725" y="89.5332">D-Fence Web Client</text><text fill="#000000" font-family="sans-serif" font-size="14" font-weight="bold" lengthAdjust="spacing" textLength="187.5303" x="1138.7349" y="107.1426">React 18 + TypeScript + Vite</text></g><!--cluster AppServer--><g id="cluster_AppServer"><polygon fill="none" points="560,486,570,476,1060,476,1060,1137.5,1050,1147.5,560,1147.5,560,486" style="stroke:#181818;stroke-width:1.0;"/><line style="stroke:#181818;stroke-width:1.0;" x1="1050" x2="1060" y1="486" y2="476"/><line style="stroke:#181818;stroke-width:1.0;" x1="560" x2="1050" y1="486" y2="486"/><line style="stroke:#181818;stroke-width:1.0;" x1="1050" x2="1050" y1="486" y2="1147.5"/><text fill="#000000" font-family="sans-serif" font-size="14" font-weight="bold" lengthAdjust="spacing" textLength="123.7031" x="744.1484" y="503.5332">Application Server</text><text fill="#000000" font-family="sans-serif" font-size="14" font-weight="bold" lengthAdjust="spacing" textLength="213.2061" x="699.397" y="521.1426">Node 20 + Express + TypeScript</text></g><!--cluster Scheduler--><g id="cluster_Scheduler"><polygon fill="none" points="259,642,269,632,528,632,528,786,518,796,259,796,259,642" style="stroke:#181818;stroke-width:1.0;"/><line style="stroke:#181818;stroke-width:1.0;" x1="518" x2="528" y1="642" y2="632"/><line style="stroke:#181818;stroke-width:1.0;" x1="259" x2="518" y1="642" y2="642"/><line style="stroke:#181818;stroke-width:1.0;" x1="518" x2="518" y1="642" y2="796"/><text fill="#000000" font-family="sans-serif" font-size="14" font-weight="bold" lengthAdjust="spacing" textLength="126.0615" x="326.4692" y="659.5332">Scheduler Process</text><text fill="#000000" font-family="sans-serif" font-size="14" font-weight="bold" lengthAdjust="spacing" textLength="156.3789" x="311.3105" y="677.1426">node-cron, same image</text></g><!--cluster DB--><g id="cluster_DB"><path d="M347,1181.5 C347,1171.5 514,1171.5 514,1171.5 C514,1171.5 681,1171.5 681,1181.5 L681,1301.5 C681,1311.5 514,1311.5 514,1311.5 C514,1311.5 347,1311.5 347,1301.5 L347,1181.5 " fill="none" style="stroke:#181818;stroke-width:1.0;"/><path d="M347,1181.5 C347,1191.5 514,1191.5 514,1191.5 C514,1191.5 681,1191.5 681,1181.5 " fill="none" style="stroke:#181818;stroke-width:1.0;"/><text fill="#000000" font-family="sans-serif" font-size="14" font-weight="bold" lengthAdjust="spacing" textLength="170.7754" x="428.6123" y="1208.0332">PostgreSQL 15 + PostGIS</text><text fill="#000000" font-family="sans-serif" font-size="14" font-weight="bold" lengthAdjust="spacing" textLength="75.4619" x="476.269" y="1225.6426">(Supabase)</text></g><!--cluster SupaCloud--><g id="cluster_SupaCloud"><path d="M1101.0112,1034.2737 C1108.9101,1020.5928 1117.7809,1020.6538 1128.8675,1030.4992 C1136.7249,1017.7043 1145.198,1017.2289 1153.1007,1030.457 C1163.4762,1016.1175 1171.6267,1019.6039 1180.3216,1032.1581 C1188.6744,1020.4129 1197.651,1017.5951 1207.5594,1030.4347 C1215.4909,1013.1715 1227.9908,1014.1616 1238.4315,1027.9392 C1247.4985,1017.5643 1256.3667,1016.4643 1262.7247,1030.6218 C1268.8826,1017.2836 1282.4096,1015.4442 1289.9359,1029.25 C1296.7906,1013.6077 1309.265,1012.9293 1318.4161,1027.0528 C1325.9796,1017.1929 1336.9811,1017.1704 1341.9628,1029.7607 C1352.9958,1016.7798 1362.2663,1015.5213 1371.6288,1031.4735 C1378.4251,1019.2219 1389.4483,1018.4245 1396.8002,1030.9081 C1406.0525,1017.446 1417.8754,1015.7912 1426.009,1032.009 C1434.0106,1021.659 1446.1509,1021.2118 1452.4536,1033.9545 C1462.0283,1020.9159 1476.7559,1021.8438 1483,1037.5 C1485.6379,1038.8628 1485.7159,1040.5776 1483.5133,1042.4431 C1509.8854,1050.7515 1508.5022,1072.6873 1490.3248,1087.7007 C1507.1772,1108.7333 1508.2683,1132.0515 1476,1139.5 C1477.4876,1140.1359 1477.6197,1141.0586 1476.5047,1142.1839 C1467.3398,1153.8933 1459.5876,1153.0664 1450.7658,1141.7997 C1446.6458,1156.789 1433.8369,1156.8761 1424.9785,1146.6446 C1417.9162,1159.7069 1404.9812,1159.2006 1398.4098,1146.1452 C1390.1891,1161.4975 1379.2387,1161.7171 1369.4333,1147.7092 C1362.2704,1161.1822 1353.5381,1163.1165 1343.7392,1150.2839 C1334.0893,1164.4792 1323.2763,1160.6261 1315.2045,1148.5686 C1307.4708,1159.7253 1298.8889,1163.8066 1289.3163,1150.5159 C1281.1007,1161.9 1268.901,1162.4163 1263.4405,1147.7765 C1254.02,1163.1384 1245.0918,1162.6249 1234.095,1149.3943 C1227.4339,1162.139 1214.2962,1161.3921 1207.8045,1149.2156 C1198.8545,1161.8226 1188.6868,1160.4841 1182.4213,1146.6396 C1173.5643,1162.1198 1161.5822,1159.7717 1152.861,1146.4999 C1143.8418,1154.787 1133.0566,1153.2399 1128.7141,1140.9987 C1112.4911,1155.5883 1100.6602,1150.5815 1092,1132.5 C1095.0405,1133.0332 1095.6465,1134.7758 1094.2655,1137.3671 C1064.5276,1123.0994 1070.0376,1102.7993 1090.6026,1085.0123 C1070.1817,1063.964 1073.5381,1044.4803 1099,1030.5 C1101.2695,1030.8923 1102.1475,1032.0664 1101.0112,1034.2737 " fill="none" style="stroke:#181818;stroke-width:1.0;"/><text fill="#000000" font-family="sans-serif" font-size="14" font-weight="bold" lengthAdjust="spacing" textLength="191.4336" x="1191.7832" y="1050.0332">Supabase managed services</text></g><!--cluster External--><g id="cluster_External"><path d="M729.191,1222.0826 C745.8301,1184.501 770.4406,1181.8553 796.5739,1212.7384 C817.1014,1179.7894 842.7633,1183.8 861.8259,1214.2463 C883.5273,1184.0183 901.8242,1192.3632 920.8549,1217.1136 C937.697,1178.749 968.3925,1182.9632 989.6611,1212.6371 C1013.8704,1183.9111 1041.0544,1179.676 1062.4482,1215.7973 C1082.2804,1184.01 1105.8682,1183.1565 1128.5652,1212.7094 C1145.9752,1185.5342 1163.1985,1178.9138 1186.4551,1206.5325 C1208.4552,1180.0909 1232.9552,1172.2883 1253.3551,1208.2482 C1276.9085,1180.1519 1300.544,1181.4287 1318.0937,1214.5928 C1336.9776,1174.9032 1372.1216,1184.5833 1391.6781,1213.8754 C1413.1451,1183.0125 1432.0895,1183.9868 1453.0718,1214.3613 C1478.5344,1181.336 1502.5393,1192.1997 1521.0889,1221.862 C1539.6577,1186.1027 1564.085,1186.0276 1586.9306,1217.6851 C1608.6613,1186.3323 1633.0324,1186.6703 1653,1219.5 C1654.6007,1219.1269 1655.0628,1219.8677 1654.8857,1221.3282 C1664.1788,1227.0691 1663.5398,1233.7958 1655.9618,1240.4845 C1665.33,1244.1434 1666.517,1252.4638 1657.9841,1258.1696 C1668.7085,1263.9922 1669.6308,1274.921 1657.5343,1280.2793 C1665.3956,1292.2141 1660.4897,1302.6675 1646,1303.5 C1650.7506,1300.2969 1653.6412,1302.0693 1655.0794,1307.1365 C1639.0042,1338.2082 1610.7358,1349.0407 1587.7155,1314.2388 C1565.3279,1346.0162 1533.9609,1343.7921 1516.5771,1308.8996 C1500.6073,1345.9589 1467.9778,1346.4426 1450.0281,1310.7097 C1432.2121,1341.6659 1409.1173,1342.0893 1389.9498,1312.0407 C1370.7602,1343.5477 1342.7325,1349.9908 1318.5881,1317.5718 C1296.0952,1351.1853 1275.0053,1343.2248 1254.6433,1315.3555 C1238.7898,1355.3625 1206.8319,1348.84 1184.2198,1322.5329 C1165.0136,1354.4269 1136.5981,1348.9988 1117.6333,1322.2588 C1098.5077,1351.9949 1070.4133,1350.5316 1055.8311,1317.7662 C1039.0093,1347.7316 1011.3374,1351.4089 994.1673,1318.1057 C968.873,1356.0415 938.9308,1349.8868 921.0293,1311.0617 C906.2249,1335.2795 879.4809,1343.4233 863.0096,1312.8262 C842.9794,1347.6843 817.1273,1342.4818 795.3077,1314.7622 C764.7543,1348.0094 725.4756,1344.7289 713,1296.5 C713.8647,1296.0004 714.4566,1296.3768 714.384,1297.3693 C704.5804,1293.5343 703.9931,1288.3691 711.1963,1281.1844 C697.5316,1278.8539 695.7165,1266.9436 704.4086,1258.0528 C696.4588,1249.0173 700.1673,1240.3724 711.8351,1238.9725 C700.7446,1227.3309 706.0638,1216.4226 720,1212.5 C726.5103,1211.2355 731.1876,1215.1879 729.191,1222.0826 " fill="none" style="stroke:#181818;stroke-width:1.0;"/><text fill="#000000" font-family="sans-serif" font-size="14" font-weight="bold" lengthAdjust="spacing" textLength="145.5098" x="1110.2451" y="1232.0332">External data sources</text></g><!--entity Screens--><g id="elem_Screens"><rect fill="#F1F1F1" height="55.2188" rx="2.5" ry="2.5" style="stroke:#181818;stroke-width:0.5;" width="100.1445" x="1085" y="127"/><text fill="#000000" font-family="sans-serif" font-size="14" lengthAdjust="spacing" textLength="80.1445" x="1095" y="151.5332">Screens (27)</text><text fill="#000000" font-family="sans-serif" font-size="14" lengthAdjust="spacing" textLength="73.9512" x="1095" y="169.1426">&#171;boundary&#187;</text></g><!--entity Guard--><g id="elem_Guard"><rect fill="#F1F1F1" height="55.2188" rx="2.5" ry="2.5" style="stroke:#181818;stroke-width:0.5;" width="165.127" x="1052.5" y="242"/><text fill="#000000" font-family="sans-serif" font-size="14" lengthAdjust="spacing" textLength="80.1582" x="1062.5" y="266.5332">Route Guard</text><text fill="#000000" font-family="sans-serif" font-size="14" lengthAdjust="spacing" textLength="145.127" x="1062.5" y="284.1426">role -&gt; permitted region</text></g><!--entity ApiClient--><g id="elem_ApiClient"><rect fill="#F1F1F1" height="55.2188" rx="2.5" ry="2.5" style="stroke:#181818;stroke-width:0.5;" width="142.5752" x="1063.5" y="357"/><text fill="#000000" font-family="sans-serif" font-size="14" lengthAdjust="spacing" textLength="62.248" x="1073.5" y="381.5332">API Client</text><text fill="#000000" font-family="sans-serif" font-size="14" lengthAdjust="spacing" textLength="122.5752" x="1073.5" y="399.1426">fetch + query cache</text></g><!--entity MapView--><g id="elem_MapView"><rect fill="#F1F1F1" height="55.2188" rx="2.5" ry="2.5" style="stroke:#181818;stroke-width:0.5;" width="160.4717" x="1253" y="242"/><text fill="#000000" font-family="sans-serif" font-size="14" lengthAdjust="spacing" textLength="61.4688" x="1263" y="266.5332">Map View</text><text fill="#000000" font-family="sans-serif" font-size="14" lengthAdjust="spacing" textLength="140.4717" x="1263" y="284.1426">Leaflet + OneMap tiles</text></g><!--entity Routes--><g id="elem_Routes"><rect fill="#F1F1F1" height="72.8281" rx="2.5" ry="2.5" style="stroke:#181818;stroke-width:0.5;" width="209.875" x="834" y="535"/><text fill="#000000" font-family="sans-serif" font-size="14" lengthAdjust="spacing" textLength="100.3721" x="844" y="559.5332">HTTP Boundary</text><text fill="#000000" font-family="sans-serif" font-size="14" lengthAdjust="spacing" textLength="189.875" x="844" y="577.1426">route handlers, DTO validation</text><text fill="#000000" font-family="sans-serif" font-size="14" lengthAdjust="spacing" textLength="73.9512" x="844" y="594.752">&#171;boundary&#187;</text></g><!--entity AC--><g id="elem_AC"><rect fill="#F1F1F1" height="72.8281" rx="2.5" ry="2.5" style="stroke:#181818;stroke-width:0.5;" width="201.2891" x="842.5" y="699"/><text fill="#000000" font-family="sans-serif" font-size="14" lengthAdjust="spacing" textLength="94.1445" x="852.5" y="723.5332">Access Control</text><text fill="#000000" font-family="sans-serif" font-size="14" lengthAdjust="spacing" textLength="181.2891" x="852.5" y="741.1426">AccessControlService (2.3.6)</text><text fill="#000000" font-family="sans-serif" font-size="14" lengthAdjust="spacing" textLength="57.5928" x="852.5" y="758.752">&#171;control&#187;</text></g><!--entity Services--><g id="elem_Services"><rect fill="#F1F1F1" height="72.8281" rx="2.5" ry="2.5" style="stroke:#181818;stroke-width:0.5;" width="132.0547" x="808" y="891.5"/><text fill="#000000" font-family="sans-serif" font-size="14" lengthAdjust="spacing" textLength="105.8135" x="818" y="916.0332">Domain Services</text><text fill="#000000" font-family="sans-serif" font-size="14" lengthAdjust="spacing" textLength="112.0547" x="818" y="933.6426">15 control classes</text><text fill="#000000" font-family="sans-serif" font-size="14" lengthAdjust="spacing" textLength="57.5928" x="818" y="951.252">&#171;control&#187;</text></g><!--entity Domain--><g id="elem_Domain"><rect fill="#F1F1F1" height="72.8281" rx="2.5" ry="2.5" style="stroke:#181818;stroke-width:0.5;" width="123.4961" x="576.5" y="1058.5"/><text fill="#000000" font-family="sans-serif" font-size="14" lengthAdjust="spacing" textLength="90.2617" x="586.5" y="1083.0332">Domain Model</text><text fill="#000000" font-family="sans-serif" font-size="14" lengthAdjust="spacing" textLength="103.4961" x="586.5" y="1100.6426">23 entity classes</text><text fill="#000000" font-family="sans-serif" font-size="14" lengthAdjust="spacing" textLength="49.0342" x="586.5" y="1118.252">&#171;entity&#187;</text></g><!--entity Persistence--><g id="elem_Persistence"><rect fill="#F1F1F1" height="72.8281" rx="2.5" ry="2.5" style="stroke:#181818;stroke-width:0.5;" width="136.334" x="735" y="1058.5"/><text fill="#000000" font-family="sans-serif" font-size="14" lengthAdjust="spacing" textLength="73.1445" x="745" y="1083.0332">Persistence</text><text fill="#000000" font-family="sans-serif" font-size="14" lengthAdjust="spacing" textLength="116.334" x="745" y="1100.6426">repositories + SQL</text><text fill="#000000" font-family="sans-serif" font-size="14" lengthAdjust="spacing" textLength="87.165" x="745" y="1118.252">&#171;persistence&#187;</text></g><!--entity Gateways--><g id="elem_Gateways"><rect fill="#F1F1F1" height="72.8281" rx="2.5" ry="2.5" style="stroke:#181818;stroke-width:0.5;" width="137.4961" x="906.5" y="1058.5"/><text fill="#000000" font-family="sans-serif" font-size="14" lengthAdjust="spacing" textLength="117.4961" x="916.5" y="1083.0332">External Gateways</text><text fill="#000000" font-family="sans-serif" font-size="14" lengthAdjust="spacing" textLength="66.1582" x="916.5" y="1100.6426">5 adapters</text><text fill="#000000" font-family="sans-serif" font-size="14" lengthAdjust="spacing" textLength="73.9512" x="916.5" y="1118.252">&#171;boundary&#187;</text></g><!--entity Jobs--><g id="elem_Jobs"><rect fill="#F1F1F1" height="72.8281" rx="2.5" ry="2.5" style="stroke:#181818;stroke-width:0.5;" width="201.2891" x="302.5" y="699"/><text fill="#000000" font-family="sans-serif" font-size="14" lengthAdjust="spacing" textLength="90.2822" x="312.5" y="723.5332">Ingestion Jobs</text><text fill="#000000" font-family="sans-serif" font-size="14" lengthAdjust="spacing" textLength="181.2891" x="312.5" y="741.1426">rainfall 5 min, clusters hourly,</text><text fill="#000000" font-family="sans-serif" font-size="14" lengthAdjust="spacing" textLength="146.3164" x="312.5" y="758.752">forecast 6 h, token 48 h</text></g><!--entity Tables--><g id="elem_Tables"><rect fill="#F1F1F1" height="55.2188" rx="2.5" ry="2.5" style="stroke:#181818;stroke-width:0.5;" width="124.6787" x="539.5" y="1240.5"/><text fill="#000000" font-family="sans-serif" font-size="14" lengthAdjust="spacing" textLength="103.5098" x="549.5" y="1265.0332">Relational tables</text><text fill="#000000" font-family="sans-serif" font-size="14" lengthAdjust="spacing" textLength="104.6787" x="549.5" y="1282.6426">+ spatial indexes</text></g><!--entity RLS--><g id="elem_RLS"><rect fill="#F1F1F1" height="55.2188" rx="2.5" ry="2.5" style="stroke:#181818;stroke-width:0.5;" width="140.5996" x="363.5" y="1240.5"/><text fill="#000000" font-family="sans-serif" font-size="14" lengthAdjust="spacing" textLength="120.5996" x="373.5" y="1265.0332">Row-Level Security</text><text fill="#000000" font-family="sans-serif" font-size="14" lengthAdjust="spacing" textLength="103.5303" x="373.5" y="1282.6426">defence in depth</text></g><!--entity SupaAuth--><g id="elem_SupaAuth"><rect fill="#F1F1F1" height="72.8281" rx="2.5" ry="2.5" style="stroke:#181818;stroke-width:0.5;" width="166.2891" x="1309" y="1058.5"/><text fill="#000000" font-family="sans-serif" font-size="14" lengthAdjust="spacing" textLength="95.7441" x="1319" y="1083.0332">Supabase Auth</text><text fill="#000000" font-family="sans-serif" font-size="14" lengthAdjust="spacing" textLength="146.2891" x="1319" y="1100.6426">credentials, verification,</text><text fill="#000000" font-family="sans-serif" font-size="14" lengthAdjust="spacing" textLength="125.2686" x="1319" y="1118.252">reset links, sessions</text></g><!--entity Storage--><g id="elem_Storage"><rect fill="#F1F1F1" height="72.8281" rx="2.5" ry="2.5" style="stroke:#181818;stroke-width:0.5;" width="174.4922" x="1100" y="1058.5"/><text fill="#000000" font-family="sans-serif" font-size="14" lengthAdjust="spacing" textLength="115.9785" x="1110" y="1083.0332">Supabase Storage</text><text fill="#000000" font-family="sans-serif" font-size="14" lengthAdjust="spacing" textLength="154.4922" x="1110" y="1100.6426">report + evidence photos</text><text fill="#000000" font-family="sans-serif" font-size="14" lengthAdjust="spacing" textLength="123.7305" x="1110" y="1118.252">private buckets only</text></g><!--entity NEA--><g id="elem_NEA"><rect fill="#F1F1F1" height="55.2188" rx="2.5" ry="2.5" style="stroke:#181818;stroke-width:0.5;" width="151.5166" x="1272" y="1240.5"/><text fill="#000000" font-family="sans-serif" font-size="14" lengthAdjust="spacing" textLength="131.5166" x="1282" y="1265.0332">NEA dengue clusters</text><text fill="#000000" font-family="sans-serif" font-size="14" lengthAdjust="spacing" textLength="63.7998" x="1282" y="1282.6426">GeoJSON</text></g><!--entity Rain--><g id="elem_Rain"><rect fill="#F1F1F1" height="55.2188" rx="2.5" ry="2.5" style="stroke:#181818;stroke-width:0.5;" width="137.5166" x="1099" y="1240.5"/><text fill="#000000" font-family="sans-serif" font-size="14" lengthAdjust="spacing" textLength="117.5166" x="1109" y="1265.0332">data.gov.sg rainfall</text><text fill="#000000" font-family="sans-serif" font-size="14" lengthAdjust="spacing" textLength="110.4961" x="1109" y="1282.6426">5-min, 97 stations</text></g><!--entity Forecast--><g id="elem_Forecast"><rect fill="#F1F1F1" height="55.2188" rx="2.5" ry="2.5" style="stroke:#181818;stroke-width:0.5;" width="177.2129" x="886.5" y="1240.5"/><text fill="#000000" font-family="sans-serif" font-size="14" lengthAdjust="spacing" textLength="157.2129" x="896.5" y="1265.0332">data.gov.sg 24 h forecast</text><text fill="#000000" font-family="sans-serif" font-size="14" lengthAdjust="spacing" textLength="101.1514" x="896.5" y="1282.6426">5 macro-regions</text></g><!--entity OneMap--><g id="elem_OneMap"><rect fill="#F1F1F1" height="55.2188" rx="2.5" ry="2.5" style="stroke:#181818;stroke-width:0.5;" width="186.1475" x="1459" y="1240.5"/><text fill="#000000" font-family="sans-serif" font-size="14" lengthAdjust="spacing" textLength="53.6963" x="1469" y="1265.0332">OneMap</text><text fill="#000000" font-family="sans-serif" font-size="14" lengthAdjust="spacing" textLength="166.1475" x="1469" y="1282.6426">Search + tiles, 3-day token</text></g><!--entity Telegram--><g id="elem_Telegram"><rect fill="#F1F1F1" height="37.6094" rx="2.5" ry="2.5" style="stroke:#181818;stroke-width:0.5;" width="130.4893" x="721" y="1249"/><text fill="#000000" font-family="sans-serif" font-size="14" lengthAdjust="spacing" textLength="110.4893" x="731" y="1273.5332">Telegram Bot API</text></g><g id="elem_GMN51"><path d="M1581.5,673.5 L1581.5,797.9609 L1884.3105,797.9609 L1884.3105,683.5 L1874.3105,673.5 L1581.5,673.5 " fill="#FEFFDD" style="stroke:#181818;stroke-width:0.5;"/><path d="M1874.3105,673.5 L1874.3105,683.5 L1884.3105,683.5 L1874.3105,673.5 " fill="#FEFFDD" style="stroke:#181818;stroke-width:1.0;"/><text fill="#000000" font-family="sans-serif" font-size="13" lengthAdjust="spacing" textLength="267.3633" x="1587.5" y="691.9951">A separate process, not a timer inside the web</text><text fill="#000000" font-family="sans-serif" font-size="13" lengthAdjust="spacing" textLength="281.8105" x="1587.5" y="708.3467">server. Two reasons: 10.2.3 requires ingestion to</text><text fill="#000000" font-family="sans-serif" font-size="13" lengthAdjust="spacing" textLength="257.207" x="1587.5" y="724.6982">resume automatically after a restart, which is</text><text fill="#000000" font-family="sans-serif" font-size="13" lengthAdjust="spacing" textLength="263.0342" x="1587.5" y="741.0498">simpler when scheduling is not tied to request</text><text fill="#000000" font-family="sans-serif" font-size="13" lengthAdjust="spacing" textLength="253.627" x="1587.5" y="757.4014">serving; and a slow ingestion cycle must not</text><text fill="#000000" font-family="sans-serif" font-size="13" lengthAdjust="spacing" textLength="258.7305" x="1587.5" y="773.7529">consume the request threads that 10.1.2 and</text><text fill="#000000" font-family="sans-serif" font-size="13" lengthAdjust="spacing" textLength="96.1162" x="1587.5" y="790.1045">10.1.5 constrain.</text></g><g id="elem_GMN54"><path d="M1076.5,857.5 L1076.5,998.3125 L1391.168,998.3125 L1391.168,867.5 L1381.168,857.5 L1076.5,857.5 " fill="#FEFFDD" style="stroke:#181818;stroke-width:0.5;"/><path d="M1381.168,857.5 L1381.168,867.5 L1391.168,867.5 L1381.168,857.5 " fill="#FEFFDD" style="stroke:#181818;stroke-width:1.0;"/><text fill="#000000" font-family="sans-serif" font-size="13" lengthAdjust="spacing" textLength="267.3823" x="1082.5" y="875.9951">Every request passes through here before any</text><text fill="#000000" font-family="sans-serif" font-size="13" lengthAdjust="spacing" textLength="283.2578" x="1082.5" y="892.3467">service runs. 2.3.6 and 10.3.3 require server-side</text><text fill="#000000" font-family="sans-serif" font-size="13" lengthAdjust="spacing" textLength="277.5068" x="1082.5" y="908.6982">enforcement; RLS in the database is the second</text><text fill="#000000" font-family="sans-serif" font-size="13" lengthAdjust="spacing" textLength="263.7451" x="1082.5" y="925.0498">layer, not the first, because the requirement is</text><text fill="#000000" font-family="sans-serif" font-size="13" lengthAdjust="spacing" textLength="177.0488" x="1082.5" y="941.4014">about the server, not the store.</text><text fill="#000000" font-family="sans-serif" font-size="13" lengthAdjust="spacing" textLength="293.668" x="1082.5" y="957.7529">Supabase Auth authenticates &#8212; it answers "who is</text><text fill="#000000" font-family="sans-serif" font-size="13" lengthAdjust="spacing" textLength="276.8657" x="1082.5" y="974.1045">this". Authorisation, "may they", stays here: &#167;2.3</text><text fill="#000000" font-family="sans-serif" font-size="13" lengthAdjust="spacing" textLength="220.3779" x="1082.5" y="990.4561">is written per role, and the role is ours.</text></g><g id="elem_GMN57"><path d="M6,1230.5 L6,1305.9063 L327.5933,1305.9063 L327.5933,1240.5 L317.5933,1230.5 L6,1230.5 " fill="#FEFFDD" style="stroke:#181818;stroke-width:0.5;"/><path d="M317.5933,1230.5 L317.5933,1240.5 L327.5933,1240.5 L317.5933,1230.5 " fill="#FEFFDD" style="stroke:#181818;stroke-width:1.0;"/><text fill="#000000" font-family="sans-serif" font-size="13" lengthAdjust="spacing" textLength="291.1924" x="12" y="1248.9951">Repository layer. Spatial predicates (ST_Contains,</text><text fill="#000000" font-family="sans-serif" font-size="13" lengthAdjust="spacing" textLength="300.5933" x="12" y="1265.3467">ST_DWithin, ST_Distance) execute in the database,</text><text fill="#000000" font-family="sans-serif" font-size="13" lengthAdjust="spacing" textLength="281.874" x="12" y="1281.6982">not in application code: 1.2.5, 3.1.8 and 5.1.7 are</text><text fill="#000000" font-family="sans-serif" font-size="13" lengthAdjust="spacing" textLength="276.7959" x="12" y="1298.0498">nearest-neighbour and point-in-polygon queries.</text></g><!--link Screens to Guard--><g id="link_Screens_Guard"><path d="M1135,182.05 C1135,200.12 1135,217.67 1135,235.78 " fill="none" id="Screens-to-Guard" style="stroke:#181818;stroke-width:1.0;"/><polygon fill="#181818" points="1135,241.78,1139,232.78,1135,236.78,1131,232.78,1135,241.78" style="stroke:#181818;stroke-width:1.0;"/></g><!--link Guard to ApiClient--><g id="link_Guard_ApiClient"><path d="M1135,297.05 C1135,315.12 1135,332.67 1135,350.78 " fill="none" id="Guard-to-ApiClient" style="stroke:#181818;stroke-width:1.0;"/><polygon fill="#181818" points="1135,356.78,1139,347.78,1135,351.78,1131,347.78,1135,356.78" style="stroke:#181818;stroke-width:1.0;"/></g><!--link MapView to ApiClient--><g id="link_MapView_ApiClient"><path d="M1322.25,297.05 C1322.25,331.07 1322.25,384.5 1322.25,384.5 C1322.25,384.5 1265.45,384.5 1212.59,384.5 " fill="none" id="MapView-to-ApiClient" style="stroke:#181818;stroke-width:1.0;"/><polygon fill="#181818" points="1206.59,384.5,1215.59,388.5,1211.59,384.5,1215.59,380.5,1206.59,384.5" style="stroke:#181818;stroke-width:1.0;"/></g><!--link ApiClient to Routes--><g id="link_ApiClient_Routes"><path d="M1070,412.23 C1070,461.57 1070,559.5 1070,559.5 C1070,559.5 1065.35,559.5 1050.12,559.5 " fill="none" id="ApiClient-to-Routes" style="stroke:#181818;stroke-width:1.0;"/><polygon fill="#181818" points="1044.12,559.5,1053.12,563.5,1049.12,559.5,1053.12,555.5,1044.12,559.5" style="stroke:#181818;stroke-width:1.0;"/><text fill="#000000" font-family="sans-serif" font-size="13" lengthAdjust="spacing" textLength="136.5317" x="1071" y="495.3051">HTTPS / JSON (10.3.2)</text></g><!--link MapView to OneMap--><g id="link_MapView_OneMap"><path d="M1413.26,269.5 C1467.11,269.5 1528.25,269.5 1528.25,269.5 C1528.25,269.5 1528.25,1072.99 1528.25,1234.25 " fill="none" id="MapView-to-OneMap" style="stroke:#181818;stroke-width:1.0;stroke-dasharray:7.0,7.0;"/><polygon fill="#181818" points="1528.25,1240.25,1532.25,1231.25,1528.25,1235.25,1524.25,1231.25,1528.25,1240.25" style="stroke:#181818;stroke-width:1.0;"/><text fill="#000000" font-family="sans-serif" font-size="13" lengthAdjust="spacing" textLength="164.7153" x="1363.25" y="693.8751">tile requests (browser-direct)</text></g><!--link Routes to AC--><g id="link_Routes_AC"><path d="M943,608.3 C943,635.31 943,665.84 943,692.82 " fill="none" id="Routes-to-AC" style="stroke:#181818;stroke-width:1.0;"/><polygon fill="#181818" points="943,698.82,947,689.82,943,693.82,939,689.82,943,698.82" style="stroke:#181818;stroke-width:1.0;"/><text fill="#000000" font-family="sans-serif" font-size="13" lengthAdjust="spacing" textLength="135.8525" x="807" y="650.0551">authorise every request</text></g><!--link AC to Services--><g id="link_AC_Services"><path d="M891.25,772.16 C891.25,806.41 891.25,851.27 891.25,885.48 " fill="none" id="AC-to-Services" style="stroke:#181818;stroke-width:1.0;"/><polygon fill="#181818" points="891.25,891.48,895.25,882.48,891.25,886.48,887.25,882.48,891.25,891.48" style="stroke:#181818;stroke-width:1.0;"/></g><!--link Routes to Services--><g id="link_Routes_Services"><path d="M838.25,608.31 C838.25,676.8 838.25,817.05 838.25,885.39 " fill="none" id="Routes-to-Services" style="stroke:#181818;stroke-width:1.0;"/><polygon fill="#181818" points="838.25,891.39,842.25,882.39,838.25,886.39,834.25,882.39,838.25,891.39" style="stroke:#181818;stroke-width:1.0;"/></g><!--link Services to Domain--><g id="link_Services_Domain"><path d="M807.95,928.5 C738.13,928.5 638,928.5 638,928.5 C638,928.5 638,1003.45 638,1052.46 " fill="none" id="Services-to-Domain" style="stroke:#181818;stroke-width:1.0;"/><polygon fill="#181818" points="638,1058.46,642,1049.46,638,1053.46,634,1049.46,638,1058.46" style="stroke:#181818;stroke-width:1.0;"/></g><!--link Services to Persistence--><g id="link_Services_Persistence"><path d="M839.5,964.65 C839.5,992.49 839.5,1024.61 839.5,1052.44 " fill="none" id="Services-to-Persistence" style="stroke:#181818;stroke-width:1.0;"/><polygon fill="#181818" points="839.5,1058.44,843.5,1049.44,839.5,1053.44,835.5,1049.44,839.5,1058.44" style="stroke:#181818;stroke-width:1.0;"/></g><!--link Persistence to Tables--><g id="link_Persistence_Tables"><path d="M822,1131.82 C822,1176.37 822,1245.5 822,1245.5 C822,1245.5 735.77,1245.5 670.75,1245.5 " fill="none" id="Persistence-to-Tables" style="stroke:#181818;stroke-width:1.0;"/><polygon fill="#181818" points="664.75,1245.5,673.75,1249.5,669.75,1245.5,673.75,1241.5,664.75,1245.5" style="stroke:#181818;stroke-width:1.0;"/></g><!--link Persistence to RLS--><g id="link_Persistence_RLS"><path d="M764,1131.72 C764,1161.13 764,1197.5 764,1197.5 C764,1197.5 433.5,1197.5 433.5,1197.5 C433.5,1197.5 433.5,1214.43 433.5,1234.14 " fill="none" id="Persistence-to-RLS" style="stroke:#181818;stroke-width:1.0;"/><polygon fill="#181818" points="433.5,1240.14,437.5,1231.14,433.5,1235.14,429.5,1231.14,433.5,1240.14" style="stroke:#181818;stroke-width:1.0;"/></g><!--link Services to Gateways--><g id="link_Services_Gateways"><path d="M917.67,964.65 C917.67,992.49 917.67,1024.61 917.67,1052.44 " fill="none" id="Services-to-Gateways" style="stroke:#181818;stroke-width:1.0;"/><polygon fill="#181818" points="917.67,1058.44,921.67,1049.44,917.67,1053.44,913.67,1049.44,917.67,1058.44" style="stroke:#181818;stroke-width:1.0;"/></g><!--link Services to Storage--><g id="link_Services_Storage"><path d="M940.37,928.5 C989.62,928.5 1048.25,928.5 1048.25,928.5 C1048.25,928.5 1048.25,1083.5 1048.25,1083.5 C1048.25,1083.5 1066.04,1083.5 1093.92,1083.5 " fill="none" id="Services-to-Storage" style="stroke:#181818;stroke-width:1.0;"/><polygon fill="#181818" points="1099.92,1083.5,1090.92,1079.5,1094.92,1083.5,1090.92,1087.5,1099.92,1083.5" style="stroke:#181818;stroke-width:1.0;"/><text fill="#000000" font-family="sans-serif" font-size="13" lengthAdjust="spacing" textLength="224.7388" x="823.25" y="992.3851">signed, non-enumerable URLs (10.3.5)</text></g><!--link Services to SupaAuth--><g id="link_Services_SupaAuth"><path d="M928.83,964.57 C928.83,993.3 928.83,1028.5 928.83,1028.5 C928.83,1028.5 1350.25,1028.5 1350.25,1028.5 C1350.25,1028.5 1350.25,1036.87 1350.25,1052.25 " fill="none" id="Services-to-SupaAuth" style="stroke:#181818;stroke-width:1.0;"/><polygon fill="#181818" points="1350.25,1058.25,1354.25,1049.25,1350.25,1053.25,1346.25,1049.25,1350.25,1058.25" style="stroke:#181818;stroke-width:1.0;"/><text fill="#000000" font-family="sans-serif" font-size="13" lengthAdjust="spacing" textLength="164.728" x="957.45" y="1024.9951">register, sign in, reset (2.1.x)</text></g><!--link Routes to SupaAuth--><g id="link_Routes_SupaAuth"><path d="M1044.12,584.5 C1180.8,584.5 1402.25,584.5 1402.25,584.5 C1402.25,584.5 1402.25,935.23 1402.25,1052.29 " fill="none" id="Routes-to-SupaAuth" style="stroke:#181818;stroke-width:1.0;"/><polygon fill="#181818" points="1402.25,1058.29,1406.25,1049.29,1402.25,1053.29,1398.25,1049.29,1402.25,1058.29" style="stroke:#181818;stroke-width:1.0;"/><text fill="#000000" font-family="sans-serif" font-size="13" lengthAdjust="spacing" textLength="107.6626" x="1294.25" y="638.8251">verify bearer token</text></g><!--link Jobs to Services--><g id="link_Jobs_Services"><path d="M503.65,735.5 C627.34,735.5 821,735.5 821,735.5 C821,735.5 821,829.49 821,885.34 " fill="none" id="Jobs-to-Services" style="stroke:#181818;stroke-width:1.0;"/><polygon fill="#181818" points="821,891.34,825,882.34,821,886.34,817,882.34,821,891.34" style="stroke:#181818;stroke-width:1.0;"/><text fill="#000000" font-family="sans-serif" font-size="13" lengthAdjust="spacing" textLength="244.9561" x="556.75" y="749.9951">IngestionController, PriorityScoringEngine,</text><text fill="#000000" font-family="sans-serif" font-size="13" lengthAdjust="spacing" textLength="122.8271" x="617.8145" y="766.3467">AlertTriggerEvaluator</text></g><!--link Gateways to NEA--><g id="link_Gateways_NEA"><path d="M1009.25,1131.7 C1009.25,1173.92 1009.25,1237.5 1009.25,1237.5 C1009.25,1237.5 1291.5,1237.5 1291.5,1237.5 C1291.5,1237.5 1291.5,1232.57 1291.5,1234.31 " fill="none" id="Gateways-to-NEA" style="stroke:#181818;stroke-width:1.0;"/><polygon fill="#181818" points="1291.5,1240.31,1295.5,1231.31,1291.5,1235.31,1287.5,1231.31,1291.5,1240.31" style="stroke:#181818;stroke-width:1.0;"/></g><!--link Gateways to Rain--><g id="link_Gateways_Rain"><path d="M1043.51,1107.5 C1067.12,1107.5 1087.75,1107.5 1087.75,1107.5 C1087.75,1107.5 1087.75,1268.5 1087.75,1268.5 C1087.75,1268.5 1086.16,1268.5 1092.91,1268.5 " fill="none" id="Gateways-to-Rain" style="stroke:#181818;stroke-width:1.0;"/><polygon fill="#181818" points="1098.91,1268.5,1089.91,1264.5,1093.91,1268.5,1089.91,1272.5,1098.91,1268.5" style="stroke:#181818;stroke-width:1.0;"/></g><!--link Gateways to Forecast--><g id="link_Gateways_Forecast"><path d="M975,1131.69 C975,1164.22 975,1205.01 975,1234.44 " fill="none" id="Gateways-to-Forecast" style="stroke:#181818;stroke-width:1.0;"/><polygon fill="#181818" points="975,1240.44,979,1231.44,975,1235.44,971,1231.44,975,1240.44" style="stroke:#181818;stroke-width:1.0;"/></g><!--link Gateways to OneMap--><g id="link_Gateways_OneMap"><path d="M940.75,1131.79 C940.75,1148.46 940.75,1164.5 940.75,1164.5 C940.75,1164.5 1467,1164.5 1467,1164.5 C1467,1164.5 1467,1203.61 1467,1234.26 " fill="none" id="Gateways-to-OneMap" style="stroke:#181818;stroke-width:1.0;"/><polygon fill="#181818" points="1467,1240.26,1471,1231.26,1467,1235.26,1463,1231.26,1467,1240.26" style="stroke:#181818;stroke-width:1.0;"/></g><!--link Gateways to Telegram--><g id="link_Gateways_Telegram"><path d="M906.33,1095.5 C890.78,1095.5 878.75,1095.5 878.75,1095.5 C878.75,1095.5 878.75,1268.5 878.75,1268.5 C878.75,1268.5 872.64,1268.5 857.17,1268.5 " fill="none" id="Gateways-to-Telegram" style="stroke:#181818;stroke-width:1.0;"/><polygon fill="#181818" points="851.17,1268.5,860.17,1272.5,856.17,1268.5,860.17,1264.5,851.17,1268.5" style="stroke:#181818;stroke-width:1.0;"/></g><!--link Scheduler to GMN51--><g id="link_Scheduler_GMN51"><path d="M528.0516,785.5 C531.6568,785.5 535.2885,785.5 538.9461,785.5 C553.5761,785.5 568.6188,785.5 584.028,785.5 C645.6649,785.5 713.1678,785.5 783.5988,785.5 C1065.3225,785.5 1393.895,785.5 1581.29,785.5 " fill="none" id="Scheduler-GMN51" style="stroke:#181818;stroke-width:1.0;stroke-dasharray:7.0,7.0;"/></g><!--link AC to GMN54--><g id="link_AC_GMN54"><path d="M991.75,772.02 C991.75,813.2 991.75,874.5 991.75,874.5 C991.75,874.5 1030.21,874.5 1076.48,874.5 " fill="none" id="AC-GMN54" style="stroke:#181818;stroke-width:1.0;stroke-dasharray:7.0,7.0;"/></g><!--link Persistence to GMN57--><g id="link_Persistence_GMN57"><path d="M793,1131.65 C793,1172.98 793,1234.5 793,1234.5 C793,1234.5 513.69,1234.5 328.21,1234.5 " fill="none" id="Persistence-GMN57" style="stroke:#181818;stroke-width:1.0;stroke-dasharray:7.0,7.0;"/></g><!--SRC=[VLTTRkD64dxNAGf-YOsHcB4y7a-SO03PuqmcS6QyfdRp8Y1eaIMoCLGtqzsqJ0G1SeZSOU-nHyb9ybMJ-g5sTbziiRggMFNrLp_yYjvDlcUJCVtrnv-KjZxmcfJBIXqu2urZEhrNIxgWd2lzn4ujAwRfc6hb0bsSZRwYj5dwpYpdpAvhwtNGrf0oEIHrPTircm0BTdJZ6YuAfgnCw7NKk4h4HMWhlgPGEkP9q53CAWsZhpqxl9CsEfIao3FUgWAJpqhEcqgRWcfdC_O-6OtyPstaV4s-LBdToEbALPuFJc9y1fxZ6yaXHMMAwb05NZcqDPDreRIZaR4vqycDini4GwUtfRDhfg_fBY_aNwfMokcpXRbu_N9o_itq9TNFOpf_cLmbv_t_wGafJriFlure7mQTRD7_cPTq6vDUc4TMMQ3pD_I2veWapPok0nx-XJk9lZh5w6hW39hCnjFfz0eHVVVTqZOcLwvz-pQQzSV7Le-s0QRl6-NoXN4Mk4pUocsjTGYS0wG2rnaTH9rZyzd3XrtaAmvPYKX_RTYrb2dSKpISrRfJEJR-ITL8YpSBSyzgLR6a-ScmY8Eks4ThF8aER7yV_RwzaLbTLpfJaMfffCd2V9GJNC4Bkdkk7MWnGB2FfEwqZo_YX_dyWMvwm0G70QK4HIjsVaplvf_eILKwZs_y0hWHHJ_qESk4ctHhJG2k2zCzzuyIXiRDdqwJY-HrlA-iE-azpcwFg6BNIdV9miulpFabzHQe5-Mzo8wTRBM_wEedu8MmfXS4gGxjePjEqdlfz8S-7e2BHjs3lO2BOzrRfrb0J_znBpxglKhlwC1ewEtkER0pggBtAF2DQX739QbSrH3xBy2zLTiJ8ksQ0cxseUi92oC7aynPCoQlKBLwhGhkIs6hV4I33wPW7qdrert2XKFUw28LNT9QmqzMDLv2ej8shch7uBn56r4-eA6LOmhsCnjwzORA-1vn8Y62DcgfFC9yi3uKZe4GuVvUa3o__v0kp6dQr57dh8FyvZYqHwuY-G1Ia3QCw5wGho63H9kSd_jwcSVJ8sExcTpp4rTWHDOuNEq25glOUy04DEhGHVnudqh0MMMR7A3sCT5Q6M2Na-_vrA68qzkeU1JgpcpMX79Xq7TouHEwyPXGUthLL-vOcEDHzUYwdt46xdc8zzx5_d-uJi4sXDHnpqdZu2UTnuJgqWOBU6gddsHUB9liCmTFrbHjvxgpFKXqnp-vAVAut6sIkvEZ73_UpG2RAHhUaM9XthFzCVtqCHf2OMWXhfF2FYM-e2slGFD99DOtL-H31ALxxUD_5ToX-VGLbRHbdfJAMe7dawvNTmw-xq-7JhhckZ0fov07QB7DZkbYagksOs-qxlI6jdEkk90PUMC3eUrtPEk5WkLs_ammGBfP4V_6v_q8wDlvaNJtAygxRahN96qvnPmLLEaKy_GYcPxjN2J9s-suk8wPO5fXzdZSzUco6xYJNCkOFnkDUf_njRVGL-0M6XQeXBh0kEfDHpWKdLtdFB3RoRO_ehJlZWFPOQCx-1tF-ley5alb3NpiUjn0sdCN2NXT6Cx7PAoPi6dM_NRspyTxtqDrUNPasvSKZ8KgGjfnT4D2mQuKCO_Ea-UpGTfxirYzBIr17pJFo9VHIBhS01yexXffF-ugUTM3qrPwJvhXdodkJ85j2qrWXjCmTngxeRl3c6qKaXnjyu-kfPe6WbWW0ycEyGDfp-I1R4TQp0xq1xou36HN-x40ui_s-sQ_P0hI0Njeq80QY7cq6oojJ1jUmg1RLXEQRooWL1w5U2qR8EPxv1Puw66rdI_1mWOYt9jG4HmAw8fLrP9QuLxm7Xm6hDbZsfGQjQgbfNkzhcLiRKgCcOCzMFiO79Rd79vtNEwYWiAtSTj6PwlivY28hCt0c3NQbvZ7SZSn8achTnBtSfLx_5T14ZfFfk8Dsl4XRY4-I4TBHeot2AOziaiRa9b06xUPkyD2mpU4B1lYtZP5IINZQsF9qjNWljt6ZkfmZV49nJqffX6vlGEr1tuYrm4ZbecSiNnqV2ir9UDDijcDOEtZiyVNIaoYKgrmCy87-Kex3yoNe5BZzq3WHUAokmM5RIJqNkJTUsiFud82bS48ZBr69Y367ZAMJoqD9Xc_aLNYP5FQpcyejJz9eebqfcv6qibQMdF9xSbOPWGuB51Tqt_-3KXWXOGsJfPr4p-oP8KVHvnYxBBGGmCJpV-VwnakPe_RTQxjq4aexVSChDLvdyLfElz5YXltxiUIyVoNTp_ZIqrQYVo6EmLtPuJ599Dj-kWYn4PWWrWTBFCPbZRK3Shc4cC9_7eJSxd4hojycKfuHhgF3nF3A5nSXOiQjTKcJBIPrBPg2tYIhn3iemTP_mq0]--></g></svg>