<svg xmlns="http://www.w3.org/2000/svg" xmlns:xlink="http://www.w3.org/1999/xlink" contentStyleType="text/css" height="1506px" preserveAspectRatio="none" style="width:2365px;height:1506px;background:#FFFFFF;" version="1.1" viewBox="0 0 2365 1506" width="2365px" zoomAndPan="magnify"><defs/><g><!--cluster Browser--><g id="cluster_Browser"><polygon fill="none" points="1486,16,1496,6,1927,6,1927,442,1917,452,1486,452,1486,16" style="stroke:#181818;stroke-width:1.0;"/><line style="stroke:#181818;stroke-width:1.0;" x1="1917" x2="1927" y1="16" y2="6"/><line style="stroke:#181818;stroke-width:1.0;" x1="1486" x2="1917" y1="16" y2="16"/><line style="stroke:#181818;stroke-width:1.0;" x1="1917" x2="1917" y1="16" y2="452"/><text fill="#000000" font-family="sans-serif" font-size="14" font-weight="bold" lengthAdjust="spacing" textLength="218.6064" x="1593.1968" y="33.5332">Browser (Chrome / Edge / Safari)</text><text fill="#000000" font-family="sans-serif" font-size="14" font-weight="bold" lengthAdjust="spacing" textLength="172.7988" x="1616.1006" y="51.1426">360-1920 px, 10.7.1, 10.7.2</text></g><!--cluster Client--><g id="cluster_Client"><rect fill="none" height="355" rx="2.5" ry="2.5" style="stroke:#181818;stroke-width:1.0;" width="393" x="1510" y="73"/><text fill="#000000" font-family="sans-serif" font-size="14" font-weight="bold" lengthAdjust="spacing" textLength="131.4551" x="1640.7725" y="89.5332">D-Fence Web Client</text><text fill="#000000" font-family="sans-serif" font-size="14" font-weight="bold" lengthAdjust="spacing" textLength="187.5303" x="1612.7349" y="107.1426">React 18 + TypeScript + Vite</text></g><!--cluster AppServer--><g id="cluster_AppServer"><polygon fill="none" points="1034,486,1044,476,1534,476,1534,1163,1524,1173,1034,1173,1034,486" style="stroke:#181818;stroke-width:1.0;"/><line style="stroke:#181818;stroke-width:1.0;" x1="1524" x2="1534" y1="486" y2="476"/><line style="stroke:#181818;stroke-width:1.0;" x1="1034" x2="1524" y1="486" y2="486"/><line style="stroke:#181818;stroke-width:1.0;" x1="1524" x2="1524" y1="486" y2="1173"/><text fill="#000000" font-family="sans-serif" font-size="14" font-weight="bold" lengthAdjust="spacing" textLength="123.7031" x="1218.1484" y="503.5332">Application Server</text><text fill="#000000" font-family="sans-serif" font-size="14" font-weight="bold" lengthAdjust="spacing" textLength="213.2061" x="1173.397" y="521.1426">Node 20 + Express + TypeScript</text></g><!--cluster Scheduler--><g id="cluster_Scheduler"><polygon fill="none" points="719,642,729,632,1002,632,1002,803,992,813,719,813,719,642" style="stroke:#181818;stroke-width:1.0;"/><line style="stroke:#181818;stroke-width:1.0;" x1="992" x2="1002" y1="642" y2="632"/><line style="stroke:#181818;stroke-width:1.0;" x1="719" x2="992" y1="642" y2="642"/><line style="stroke:#181818;stroke-width:1.0;" x1="992" x2="992" y1="642" y2="813"/><text fill="#000000" font-family="sans-serif" font-size="14" font-weight="bold" lengthAdjust="spacing" textLength="126.0615" x="793.4692" y="659.5332">Scheduler Process</text><text fill="#000000" font-family="sans-serif" font-size="14" font-weight="bold" lengthAdjust="spacing" textLength="156.3789" x="778.3105" y="677.1426">node-cron, same image</text></g><!--cluster DB--><g id="cluster_DB"><path d="M347,1207 C347,1197 514,1197 514,1197 C514,1197 681,1197 681,1207 L681,1327 C681,1337 514,1337 514,1337 C514,1337 347,1337 347,1327 L347,1207 " fill="none" style="stroke:#181818;stroke-width:1.0;"/><path d="M347,1207 C347,1217 514,1217 514,1217 C514,1217 681,1217 681,1207 " fill="none" style="stroke:#181818;stroke-width:1.0;"/><text fill="#000000" font-family="sans-serif" font-size="14" font-weight="bold" lengthAdjust="spacing" textLength="170.7754" x="428.6123" y="1233.5332">PostgreSQL 15 + PostGIS</text><text fill="#000000" font-family="sans-serif" font-size="14" font-weight="bold" lengthAdjust="spacing" textLength="75.4619" x="476.269" y="1251.1426">(Supabase)</text></g><!--cluster SupaCloud--><g id="cluster_SupaCloud"><path d="M1575.0112,1051.2737 C1582.9101,1037.5928 1591.7809,1037.6538 1602.8675,1047.4992 C1610.7249,1034.7043 1619.198,1034.2289 1627.1007,1047.457 C1637.4762,1033.1175 1645.6267,1036.6039 1654.3216,1049.1581 C1662.6744,1037.4129 1671.651,1034.5951 1681.5594,1047.4347 C1689.4909,1030.1715 1701.9908,1031.1616 1712.4315,1044.9392 C1721.4985,1034.5643 1730.3667,1033.4643 1736.7247,1047.6218 C1742.8826,1034.2836 1756.4096,1032.4442 1763.9359,1046.25 C1770.7906,1030.6077 1783.265,1029.9293 1792.4161,1044.0528 C1799.9796,1034.1929 1810.9811,1034.1704 1815.9628,1046.7607 C1826.9958,1033.7798 1836.2663,1032.5213 1845.6288,1048.4735 C1852.4251,1036.2219 1863.4483,1035.4245 1870.8002,1047.9081 C1880.0525,1034.446 1891.8754,1032.7912 1900.009,1049.009 C1908.0106,1038.659 1920.1509,1038.2118 1926.4536,1050.9545 C1936.0283,1037.9159 1950.7559,1038.8438 1957,1054.5 C1959.6379,1055.8628 1959.7159,1057.5776 1957.5133,1059.4431 C1983.8854,1067.7515 1982.5022,1089.6873 1964.3248,1104.7007 C1981.1772,1125.7333 1982.2683,1149.0515 1950,1156.5 C1951.4876,1157.1359 1951.6197,1158.0586 1950.5047,1159.1839 C1941.3398,1170.8933 1933.5876,1170.0664 1924.7658,1158.7997 C1920.6458,1173.789 1907.8369,1173.8761 1898.9785,1163.6446 C1891.9162,1176.7069 1878.9812,1176.2006 1872.4098,1163.1452 C1864.1891,1178.4975 1853.2387,1178.7171 1843.4333,1164.7092 C1836.2704,1178.1822 1827.5381,1180.1165 1817.7392,1167.2839 C1808.0893,1181.4792 1797.2763,1177.6261 1789.2045,1165.5686 C1781.4708,1176.7253 1772.8889,1180.8066 1763.3163,1167.5159 C1755.1007,1178.9 1742.901,1179.4163 1737.4405,1164.7765 C1728.02,1180.1384 1719.0918,1179.6249 1708.095,1166.3943 C1701.4339,1179.139 1688.2962,1178.3921 1681.8045,1166.2156 C1672.8545,1178.8226 1662.6868,1177.4841 1656.4213,1163.6396 C1647.5643,1179.1198 1635.5822,1176.7717 1626.861,1163.4999 C1617.8418,1171.787 1607.0566,1170.2399 1602.7141,1157.9987 C1586.4911,1172.5883 1574.6602,1167.5815 1566,1149.5 C1569.0405,1150.0332 1569.6465,1151.7758 1568.2655,1154.3671 C1538.5276,1140.0994 1544.0376,1119.7993 1564.6026,1102.0123 C1544.1817,1080.964 1547.5381,1061.4803 1573,1047.5 C1575.2695,1047.8923 1576.1475,1049.0664 1575.0112,1051.2737 " fill="none" style="stroke:#181818;stroke-width:1.0;"/><text fill="#000000" font-family="sans-serif" font-size="14" font-weight="bold" lengthAdjust="spacing" textLength="191.4336" x="1665.7832" y="1067.0332">Supabase managed services</text></g><!--cluster External--><g id="cluster_External"><path d="M734.038,1234.4105 C758.4895,1183.251 802.1279,1187.964 830.6713,1230.1755 C870.8128,1187.6229 904.6507,1189.2913 934.9615,1241.0468 C957.9178,1188.3958 1003.5509,1183.2869 1038.8136,1227.908 C1070.7151,1178.2683 1109.227,1182.082 1136.0541,1232.8237 C1160.8846,1186.4652 1201.8585,1199.6314 1223.5188,1236.1687 C1253.1213,1189.3232 1292.1018,1193.43 1321.4853,1236.4076 C1351.0744,1183.2058 1384.375,1175.202 1426.3763,1223.5922 C1460.8354,1179.3264 1512.0086,1182.1173 1533.9686,1237.1369 C1553.2126,1185.8442 1597.5279,1187.0615 1624.8686,1229.265 C1656.8882,1182.6486 1692.0937,1194.8906 1717.4946,1236.2347 C1750.9461,1177.583 1785.4453,1169.6604 1829.0453,1226.4261 C1866.1886,1194.6647 1897.2515,1200.4665 1920.6212,1243.3287 C1952.1302,1189.002 1985.966,1195.3989 2021.5192,1239.169 C2052.0804,1189.1795 2086.3956,1195.1601 2119,1237 C2121.2005,1236.6336 2122.3482,1237.2031 2121.9624,1239.6875 C2136.8356,1242.4931 2136.5865,1254.5034 2128.7869,1263.7416 C2139.0652,1266.8655 2143.4634,1276.0131 2133.7988,1284.0569 C2145.7431,1294.2256 2144.838,1304.9378 2129.9833,1311.3615 C2135.9727,1325.1991 2130.5137,1340.3493 2112,1337 C2117.0952,1340.4906 2118.0118,1344.4176 2112.6903,1348.5318 C2082.8559,1382.7925 2051.2963,1387.0743 2025.502,1343.9783 C1997.4092,1388.9089 1956.813,1391.0679 1926.5939,1346.3236 C1902.7529,1401.9251 1851.4708,1403.4531 1820.2717,1353.753 C1787.8517,1395.0169 1758.0343,1392.9515 1732.0691,1347.2093 C1699.8672,1407.863 1659.9657,1397.1968 1623.2069,1351.8912 C1590.2914,1394.6785 1560.6226,1401.8937 1529.2127,1350.3903 C1497.2013,1406.3314 1457.3385,1394.0407 1424.0977,1351.7053 C1388.3707,1395.9566 1356.7068,1384.5144 1333.4955,1339.0639 C1297.9897,1394.399 1264.0206,1395.3072 1225.3223,1342.25 C1194.5542,1394.4306 1158.5898,1395.5014 1124.4204,1345.6124 C1105.0871,1386.6738 1065.1456,1388.238 1039.1373,1353.0813 C1004.1566,1395.5409 961.8982,1408.0648 931.2589,1348.4911 C902.0278,1387.2294 872.2765,1396.8542 842.6008,1348.946 C797.4383,1397.9381 747.7043,1399.478 721,1330 C723.8767,1328.8683 725.2782,1330.1267 724.8561,1333.0993 C710.7643,1330.6532 705.2012,1318.7895 716.86,1308.1053 C706.9438,1302.8749 703.4431,1295.0465 713.4856,1286.6736 C700.7894,1276.5869 704.3727,1265.8749 718.3741,1260.8404 C708.6059,1248.546 709.8538,1233.5818 728,1230 C731.9301,1228.6401 733.9824,1230.4662 734.038,1234.4105 " fill="none" style="stroke:#181818;stroke-width:1.0;"/><text fill="#000000" font-family="sans-serif" font-size="14" font-weight="bold" lengthAdjust="spacing" textLength="145.5098" x="1347.2451" y="1249.5332">External data sources</text></g><!--entity Screens--><g id="elem_Screens"><rect fill="#F1F1F1" height="55.2188" rx="2.5" ry="2.5" style="stroke:#181818;stroke-width:0.5;" width="100.1445" x="1559" y="127"/><text fill="#000000" font-family="sans-serif" font-size="14" lengthAdjust="spacing" textLength="80.1445" x="1569" y="151.5332">Screens (29)</text><text fill="#000000" font-family="sans-serif" font-size="14" lengthAdjust="spacing" textLength="73.9512" x="1569" y="169.1426">&#171;boundary&#187;</text></g><!--entity Guard--><g id="elem_Guard"><rect fill="#F1F1F1" height="55.2188" rx="2.5" ry="2.5" style="stroke:#181818;stroke-width:0.5;" width="165.127" x="1526.5" y="242"/><text fill="#000000" font-family="sans-serif" font-size="14" lengthAdjust="spacing" textLength="80.1582" x="1536.5" y="266.5332">Route Guard</text><text fill="#000000" font-family="sans-serif" font-size="14" lengthAdjust="spacing" textLength="145.127" x="1536.5" y="284.1426">role -&gt; permitted region</text></g><!--entity ApiClient--><g id="elem_ApiClient"><rect fill="#F1F1F1" height="55.2188" rx="2.5" ry="2.5" style="stroke:#181818;stroke-width:0.5;" width="142.5752" x="1537.5" y="357"/><text fill="#000000" font-family="sans-serif" font-size="14" lengthAdjust="spacing" textLength="62.248" x="1547.5" y="381.5332">API Client</text><text fill="#000000" font-family="sans-serif" font-size="14" lengthAdjust="spacing" textLength="122.5752" x="1547.5" y="399.1426">fetch + query cache</text></g><!--entity MapView--><g id="elem_MapView"><rect fill="#F1F1F1" height="55.2188" rx="2.5" ry="2.5" style="stroke:#181818;stroke-width:0.5;" width="160.4717" x="1727" y="242"/><text fill="#000000" font-family="sans-serif" font-size="14" lengthAdjust="spacing" textLength="61.4688" x="1737" y="266.5332">Map View</text><text fill="#000000" font-family="sans-serif" font-size="14" lengthAdjust="spacing" textLength="140.4717" x="1737" y="284.1426">Leaflet + OneMap tiles</text></g><!--entity Routes--><g id="elem_Routes"><rect fill="#F1F1F1" height="72.8281" rx="2.5" ry="2.5" style="stroke:#181818;stroke-width:0.5;" width="209.875" x="1308" y="535"/><text fill="#000000" font-family="sans-serif" font-size="14" lengthAdjust="spacing" textLength="100.3721" x="1318" y="559.5332">HTTP Boundary</text><text fill="#000000" font-family="sans-serif" font-size="14" lengthAdjust="spacing" textLength="189.875" x="1318" y="577.1426">route handlers, DTO validation</text><text fill="#000000" font-family="sans-serif" font-size="14" lengthAdjust="spacing" textLength="73.9512" x="1318" y="594.752">&#171;boundary&#187;</text></g><!--entity AC--><g id="elem_AC"><rect fill="#F1F1F1" height="72.8281" rx="2.5" ry="2.5" style="stroke:#181818;stroke-width:0.5;" width="201.2891" x="1316.5" y="707.5"/><text fill="#000000" font-family="sans-serif" font-size="14" lengthAdjust="spacing" textLength="94.1445" x="1326.5" y="732.0332">Access Control</text><text fill="#000000" font-family="sans-serif" font-size="14" lengthAdjust="spacing" textLength="181.2891" x="1326.5" y="749.6426">AccessControlService (2.3.6)</text><text fill="#000000" font-family="sans-serif" font-size="14" lengthAdjust="spacing" textLength="57.5928" x="1326.5" y="767.252">&#171;control&#187;</text></g><!--entity Services--><g id="elem_Services"><rect fill="#F1F1F1" height="72.8281" rx="2.5" ry="2.5" style="stroke:#181818;stroke-width:0.5;" width="132.0547" x="1282" y="900"/><text fill="#000000" font-family="sans-serif" font-size="14" lengthAdjust="spacing" textLength="105.8135" x="1292" y="924.5332">Domain Services</text><text fill="#000000" font-family="sans-serif" font-size="14" lengthAdjust="spacing" textLength="112.0547" x="1292" y="942.1426">20 control classes</text><text fill="#000000" font-family="sans-serif" font-size="14" lengthAdjust="spacing" textLength="57.5928" x="1292" y="959.752">&#171;control&#187;</text></g><!--entity Domain--><g id="elem_Domain"><rect fill="#F1F1F1" height="72.8281" rx="2.5" ry="2.5" style="stroke:#181818;stroke-width:0.5;" width="123.4961" x="1050.5" y="1075.5"/><text fill="#000000" font-family="sans-serif" font-size="14" lengthAdjust="spacing" textLength="90.2617" x="1060.5" y="1100.0332">Domain Model</text><text fill="#000000" font-family="sans-serif" font-size="14" lengthAdjust="spacing" textLength="103.4961" x="1060.5" y="1117.6426">27 entity classes</text><text fill="#000000" font-family="sans-serif" font-size="14" lengthAdjust="spacing" textLength="49.0342" x="1060.5" y="1135.252">&#171;entity&#187;</text></g><!--entity Persistence--><g id="elem_Persistence"><rect fill="#F1F1F1" height="90.4375" rx="2.5" ry="2.5" style="stroke:#181818;stroke-width:0.5;" width="136.334" x="1209" y="1067"/><text fill="#000000" font-family="sans-serif" font-size="14" lengthAdjust="spacing" textLength="73.1445" x="1219" y="1091.5332">Persistence</text><text fill="#000000" font-family="sans-serif" font-size="14" lengthAdjust="spacing" textLength="116.334" x="1219" y="1109.1426">repositories + SQL</text><text fill="#000000" font-family="sans-serif" font-size="14" lengthAdjust="spacing" textLength="108.1309" x="1219" y="1126.752">in-memory stores</text><text fill="#000000" font-family="sans-serif" font-size="14" lengthAdjust="spacing" textLength="87.165" x="1219" y="1144.3613">&#171;persistence&#187;</text></g><!--entity Gateways--><g id="elem_Gateways"><rect fill="#F1F1F1" height="72.8281" rx="2.5" ry="2.5" style="stroke:#181818;stroke-width:0.5;" width="137.4961" x="1380.5" y="1075.5"/><text fill="#000000" font-family="sans-serif" font-size="14" lengthAdjust="spacing" textLength="117.4961" x="1390.5" y="1100.0332">External Gateways</text><text fill="#000000" font-family="sans-serif" font-size="14" lengthAdjust="spacing" textLength="66.1582" x="1390.5" y="1117.6426">7 adapters</text><text fill="#000000" font-family="sans-serif" font-size="14" lengthAdjust="spacing" textLength="73.9512" x="1390.5" y="1135.252">&#171;boundary&#187;</text></g><!--entity Jobs--><g id="elem_Jobs"><rect fill="#F1F1F1" height="90.4375" rx="2.5" ry="2.5" style="stroke:#181818;stroke-width:0.5;" width="215.3369" x="762.5" y="699"/><text fill="#000000" font-family="sans-serif" font-size="14" lengthAdjust="spacing" textLength="90.2822" x="772.5" y="723.5332">Ingestion Jobs</text><text fill="#000000" font-family="sans-serif" font-size="14" lengthAdjust="spacing" textLength="181.2891" x="772.5" y="741.1426">rainfall 5 min, clusters hourly,</text><text fill="#000000" font-family="sans-serif" font-size="14" lengthAdjust="spacing" textLength="195.3369" x="772.5" y="758.752">forecast 6 h, observations 24 h,</text><text fill="#000000" font-family="sans-serif" font-size="14" lengthAdjust="spacing" textLength="164.1855" x="772.5" y="776.3613">operator registry at startup</text></g><!--entity Tables--><g id="elem_Tables"><rect fill="#F1F1F1" height="55.2188" rx="2.5" ry="2.5" style="stroke:#181818;stroke-width:0.5;" width="124.6787" x="539.5" y="1266"/><text fill="#000000" font-family="sans-serif" font-size="14" lengthAdjust="spacing" textLength="103.5098" x="549.5" y="1290.5332">Relational tables</text><text fill="#000000" font-family="sans-serif" font-size="14" lengthAdjust="spacing" textLength="104.6787" x="549.5" y="1308.1426">+ spatial indexes</text></g><!--entity RLS--><g id="elem_RLS"><rect fill="#F1F1F1" height="55.2188" rx="2.5" ry="2.5" style="stroke:#181818;stroke-width:0.5;" width="140.5996" x="363.5" y="1266"/><text fill="#000000" font-family="sans-serif" font-size="14" lengthAdjust="spacing" textLength="120.5996" x="373.5" y="1290.5332">Row-Level Security</text><text fill="#000000" font-family="sans-serif" font-size="14" lengthAdjust="spacing" textLength="103.5303" x="373.5" y="1308.1426">defence in depth</text></g><!--entity SupaAuth--><g id="elem_SupaAuth"><rect fill="#F1F1F1" height="72.8281" rx="2.5" ry="2.5" style="stroke:#181818;stroke-width:0.5;" width="166.2891" x="1783" y="1075.5"/><text fill="#000000" font-family="sans-serif" font-size="14" lengthAdjust="spacing" textLength="95.7441" x="1793" y="1100.0332">Supabase Auth</text><text fill="#000000" font-family="sans-serif" font-size="14" lengthAdjust="spacing" textLength="146.2891" x="1793" y="1117.6426">credentials, verification,</text><text fill="#000000" font-family="sans-serif" font-size="14" lengthAdjust="spacing" textLength="125.2686" x="1793" y="1135.252">reset links, sessions</text></g><!--entity Storage--><g id="elem_Storage"><rect fill="#F1F1F1" height="72.8281" rx="2.5" ry="2.5" style="stroke:#181818;stroke-width:0.5;" width="174.4922" x="1574" y="1075.5"/><text fill="#000000" font-family="sans-serif" font-size="14" lengthAdjust="spacing" textLength="115.9785" x="1584" y="1100.0332">Supabase Storage</text><text fill="#000000" font-family="sans-serif" font-size="14" lengthAdjust="spacing" textLength="154.4922" x="1584" y="1117.6426">report + evidence photos</text><text fill="#000000" font-family="sans-serif" font-size="14" lengthAdjust="spacing" textLength="123.7305" x="1584" y="1135.252">private buckets only</text></g><!--entity NEA--><g id="elem_NEA"><rect fill="#F1F1F1" height="55.2188" rx="2.5" ry="2.5" style="stroke:#181818;stroke-width:0.5;" width="151.5166" x="1373" y="1266"/><text fill="#000000" font-family="sans-serif" font-size="14" lengthAdjust="spacing" textLength="131.5166" x="1383" y="1290.5332">NEA dengue clusters</text><text fill="#000000" font-family="sans-serif" font-size="14" lengthAdjust="spacing" textLength="63.7998" x="1383" y="1308.1426">GeoJSON</text></g><!--entity Rain--><g id="elem_Rain"><rect fill="#F1F1F1" height="55.2188" rx="2.5" ry="2.5" style="stroke:#181818;stroke-width:0.5;" width="137.5166" x="756" y="1266"/><text fill="#000000" font-family="sans-serif" font-size="14" lengthAdjust="spacing" textLength="117.5166" x="766" y="1290.5332">data.gov.sg rainfall</text><text fill="#000000" font-family="sans-serif" font-size="14" lengthAdjust="spacing" textLength="110.4961" x="766" y="1308.1426">5-min, 97 stations</text></g><!--entity Forecast--><g id="elem_Forecast"><rect fill="#F1F1F1" height="55.2188" rx="2.5" ry="2.5" style="stroke:#181818;stroke-width:0.5;" width="177.2129" x="1725.5" y="1266"/><text fill="#000000" font-family="sans-serif" font-size="14" lengthAdjust="spacing" textLength="157.2129" x="1735.5" y="1290.5332">data.gov.sg 24 h forecast</text><text fill="#000000" font-family="sans-serif" font-size="14" lengthAdjust="spacing" textLength="101.1514" x="1735.5" y="1308.1426">5 macro-regions</text></g><!--entity OneMap--><g id="elem_OneMap"><rect fill="#F1F1F1" height="55.2188" rx="2.5" ry="2.5" style="stroke:#181818;stroke-width:0.5;" width="165.1064" x="1937.5" y="1266"/><text fill="#000000" font-family="sans-serif" font-size="14" lengthAdjust="spacing" textLength="53.6963" x="1947.5" y="1290.5332">OneMap</text><text fill="#000000" font-family="sans-serif" font-size="14" lengthAdjust="spacing" textLength="145.1064" x="1947.5" y="1308.1426">Search (keyless) + tiles</text></g><!--entity INat--><g id="elem_INat"><rect fill="#F1F1F1" height="55.2188" rx="2.5" ry="2.5" style="stroke:#181818;stroke-width:0.5;" width="180.3027" x="1158" y="1266"/><text fill="#000000" font-family="sans-serif" font-size="14" lengthAdjust="spacing" textLength="145.5098" x="1168" y="1290.5332">iNaturalist observations</text><text fill="#000000" font-family="sans-serif" font-size="14" lengthAdjust="spacing" textLength="160.3027" x="1168" y="1308.1426">22 taxa, daily, tier B pests</text></g><!--entity VCO--><g id="elem_VCO"><rect fill="#F1F1F1" height="55.2188" rx="2.5" ry="2.5" style="stroke:#181818;stroke-width:0.5;" width="192.7441" x="929.5" y="1266"/><text fill="#000000" font-family="sans-serif" font-size="14" lengthAdjust="spacing" textLength="172.7441" x="939.5" y="1290.5332">NEA vector control operator</text><text fill="#000000" font-family="sans-serif" font-size="14" lengthAdjust="spacing" textLength="155.5996" x="939.5" y="1308.1426">registry - 290 rows, static</text></g><!--entity Telegram--><g id="elem_Telegram"><rect fill="#F1F1F1" height="37.6094" rx="2.5" ry="2.5" style="stroke:#181818;stroke-width:0.5;" width="130.4893" x="1560" y="1274.5"/><text fill="#000000" font-family="sans-serif" font-size="14" lengthAdjust="spacing" textLength="110.4893" x="1570" y="1299.0332">Telegram Bot API</text></g><g id="elem_GMN53"><path d="M2055.5,682 L2055.5,806.4609 L2358.3105,806.4609 L2358.3105,692 L2348.3105,682 L2055.5,682 " fill="#FEFFDD" style="stroke:#181818;stroke-width:0.5;"/><path d="M2348.3105,682 L2348.3105,692 L2358.3105,692 L2348.3105,682 " fill="#FEFFDD" style="stroke:#181818;stroke-width:1.0;"/><text fill="#000000" font-family="sans-serif" font-size="13" lengthAdjust="spacing" textLength="267.3633" x="2061.5" y="700.4951">A separate process, not a timer inside the web</text><text fill="#000000" font-family="sans-serif" font-size="13" lengthAdjust="spacing" textLength="281.8105" x="2061.5" y="716.8467">server. Two reasons: 10.2.3 requires ingestion to</text><text fill="#000000" font-family="sans-serif" font-size="13" lengthAdjust="spacing" textLength="257.207" x="2061.5" y="733.1982">resume automatically after a restart, which is</text><text fill="#000000" font-family="sans-serif" font-size="13" lengthAdjust="spacing" textLength="263.0342" x="2061.5" y="749.5498">simpler when scheduling is not tied to request</text><text fill="#000000" font-family="sans-serif" font-size="13" lengthAdjust="spacing" textLength="253.627" x="2061.5" y="765.9014">serving; and a slow ingestion cycle must not</text><text fill="#000000" font-family="sans-serif" font-size="13" lengthAdjust="spacing" textLength="258.7305" x="2061.5" y="782.2529">consume the request threads that 10.1.2 and</text><text fill="#000000" font-family="sans-serif" font-size="13" lengthAdjust="spacing" textLength="96.1162" x="2061.5" y="798.6045">10.1.5 constrain.</text></g><g id="elem_GMN56"><path d="M1550.5,866 L1550.5,1006.8125 L1865.168,1006.8125 L1865.168,876 L1855.168,866 L1550.5,866 " fill="#FEFFDD" style="stroke:#181818;stroke-width:0.5;"/><path d="M1855.168,866 L1855.168,876 L1865.168,876 L1855.168,866 " fill="#FEFFDD" style="stroke:#181818;stroke-width:1.0;"/><text fill="#000000" font-family="sans-serif" font-size="13" lengthAdjust="spacing" textLength="267.3823" x="1556.5" y="884.4951">Every request passes through here before any</text><text fill="#000000" font-family="sans-serif" font-size="13" lengthAdjust="spacing" textLength="283.2578" x="1556.5" y="900.8467">service runs. 2.3.6 and 10.3.3 require server-side</text><text fill="#000000" font-family="sans-serif" font-size="13" lengthAdjust="spacing" textLength="277.5068" x="1556.5" y="917.1982">enforcement; RLS in the database is the second</text><text fill="#000000" font-family="sans-serif" font-size="13" lengthAdjust="spacing" textLength="263.7451" x="1556.5" y="933.5498">layer, not the first, because the requirement is</text><text fill="#000000" font-family="sans-serif" font-size="13" lengthAdjust="spacing" textLength="177.0488" x="1556.5" y="949.9014">about the server, not the store.</text><text fill="#000000" font-family="sans-serif" font-size="13" lengthAdjust="spacing" textLength="293.668" x="1556.5" y="966.2529">Supabase Auth authenticates &#8212; it answers "who is</text><text fill="#000000" font-family="sans-serif" font-size="13" lengthAdjust="spacing" textLength="276.8657" x="1556.5" y="982.6045">this". Authorisation, "may they", stays here: &#167;2.3</text><text fill="#000000" font-family="sans-serif" font-size="13" lengthAdjust="spacing" textLength="220.3779" x="1556.5" y="998.9561">is written per role, and the role is ours.</text></g><g id="elem_GMN59"><path d="M6,1256 L6,1331.4063 L327.5933,1331.4063 L327.5933,1266 L317.5933,1256 L6,1256 " fill="#FEFFDD" style="stroke:#181818;stroke-width:0.5;"/><path d="M317.5933,1256 L317.5933,1266 L327.5933,1266 L317.5933,1256 " fill="#FEFFDD" style="stroke:#181818;stroke-width:1.0;"/><text fill="#000000" font-family="sans-serif" font-size="13" lengthAdjust="spacing" textLength="291.1924" x="12" y="1274.4951">Repository layer. Spatial predicates (ST_Contains,</text><text fill="#000000" font-family="sans-serif" font-size="13" lengthAdjust="spacing" textLength="300.5933" x="12" y="1290.8467">ST_DWithin, ST_Distance) execute in the database,</text><text fill="#000000" font-family="sans-serif" font-size="13" lengthAdjust="spacing" textLength="281.874" x="12" y="1307.1982">not in application code: 1.2.5, 3.1.8 and 5.1.7 are</text><text fill="#000000" font-family="sans-serif" font-size="13" lengthAdjust="spacing" textLength="276.7959" x="12" y="1323.5498">nearest-neighbour and point-in-polygon queries.</text></g><g id="elem_GMN62"><path d="M532.5,1391 L532.5,1499.1094 L909.7114,1499.1094 L909.7114,1401 L899.7114,1391 L532.5,1391 " fill="#FEFFDD" style="stroke:#181818;stroke-width:0.5;"/><path d="M899.7114,1391 L899.7114,1401 L909.7114,1401 L899.7114,1391 " fill="#FEFFDD" style="stroke:#181818;stroke-width:1.0;"/><text fill="#000000" font-family="sans-serif" font-size="13" lengthAdjust="spacing" textLength="320.8105" x="538.5" y="1409.4951">v0.9. iNaturalist is the ONLY live feed that exists for any</text><text fill="#000000" font-family="sans-serif" font-size="13" lengthAdjust="spacing" textLength="350.4922" x="538.5" y="1425.8467">pest other than the mosquito - no Singapore government API</text><text fill="#000000" font-family="sans-serif" font-size="13" lengthAdjust="spacing" textLength="320.8169" x="538.5" y="1442.1982">publishes cockroach, rat, boar or snake reports (verified</text><text fill="#000000" font-family="sans-serif" font-size="13" lengthAdjust="spacing" textLength="299.9268" x="538.5" y="1458.5498">against all 4,615 data.gov.sg datasets, 2026-09-16).</text><text fill="#000000" font-family="sans-serif" font-size="13" lengthAdjust="spacing" textLength="356.2114" x="538.5" y="1474.9014">The VCO registry is STATIC reference data (1.6.7), geocoded</text><text fill="#000000" font-family="sans-serif" font-size="13" lengthAdjust="spacing" textLength="285.0415" x="538.5" y="1491.2529">once through OneMap's keyless search endpoint.</text></g><!--link Screens to Guard--><g id="link_Screens_Guard"><path d="M1609,182.05 C1609,200.12 1609,217.67 1609,235.78 " fill="none" id="Screens-to-Guard" style="stroke:#181818;stroke-width:1.0;"/><polygon fill="#181818" points="1609,241.78,1613,232.78,1609,236.78,1605,232.78,1609,241.78" style="stroke:#181818;stroke-width:1.0;"/></g><!--link Guard to ApiClient--><g id="link_Guard_ApiClient"><path d="M1609,297.05 C1609,315.12 1609,332.67 1609,350.78 " fill="none" id="Guard-to-ApiClient" style="stroke:#181818;stroke-width:1.0;"/><polygon fill="#181818" points="1609,356.78,1613,347.78,1609,351.78,1605,347.78,1609,356.78" style="stroke:#181818;stroke-width:1.0;"/></g><!--link MapView to ApiClient--><g id="link_MapView_ApiClient"><path d="M1796.25,297.17 C1796.25,331.33 1796.25,385 1796.25,385 C1796.25,385 1739.45,385 1686.59,385 " fill="none" id="MapView-to-ApiClient" style="stroke:#181818;stroke-width:1.0;"/><polygon fill="#181818" points="1680.59,385,1689.59,389,1685.59,385,1689.59,381,1680.59,385" style="stroke:#181818;stroke-width:1.0;"/></g><!--link ApiClient to Routes--><g id="link_ApiClient_Routes"><path d="M1544,412.31 C1544,461.79 1544,560 1544,560 C1544,560 1539.35,560 1524.12,560 " fill="none" id="ApiClient-to-Routes" style="stroke:#181818;stroke-width:1.0;"/><polygon fill="#181818" points="1518.12,560,1527.12,564,1523.12,560,1527.12,556,1518.12,560" style="stroke:#181818;stroke-width:1.0;"/><text fill="#000000" font-family="sans-serif" font-size="13" lengthAdjust="spacing" textLength="136.5317" x="1545" y="495.5851">HTTPS / JSON (10.3.2)</text></g><!--link MapView to OneMap--><g id="link_MapView_OneMap"><path d="M1887.26,270 C1941.11,270 2002.25,270 2002.25,270 C2002.25,270 2002.25,1096.46 2002.25,1259.86 " fill="none" id="MapView-to-OneMap" style="stroke:#181818;stroke-width:1.0;stroke-dasharray:7.0,7.0;"/><polygon fill="#181818" points="2002.25,1265.86,2006.25,1256.86,2002.25,1260.86,1998.25,1256.86,2002.25,1265.86" style="stroke:#181818;stroke-width:1.0;"/><text fill="#000000" font-family="sans-serif" font-size="13" lengthAdjust="spacing" textLength="164.7153" x="1837.25" y="706.9251">tile requests (browser-direct)</text></g><!--link Routes to AC--><g id="link_Routes_AC"><path d="M1417,608.08 C1417,637.36 1417,672.21 1417,701.47 " fill="none" id="Routes-to-AC" style="stroke:#181818;stroke-width:1.0;"/><polygon fill="#181818" points="1417,707.47,1421,698.47,1417,702.47,1413,698.47,1417,707.47" style="stroke:#181818;stroke-width:1.0;"/><text fill="#000000" font-family="sans-serif" font-size="13" lengthAdjust="spacing" textLength="135.8525" x="1281" y="654.2751">authorise every request</text></g><!--link AC to Services--><g id="link_AC_Services"><path d="M1365.25,780.66 C1365.25,814.91 1365.25,859.77 1365.25,893.98 " fill="none" id="AC-to-Services" style="stroke:#181818;stroke-width:1.0;"/><polygon fill="#181818" points="1365.25,899.98,1369.25,890.98,1365.25,894.98,1361.25,890.98,1365.25,899.98" style="stroke:#181818;stroke-width:1.0;"/></g><!--link Routes to Services--><g id="link_Routes_Services"><path d="M1312.25,608.17 C1312.25,678.13 1312.25,823.91 1312.25,893.86 " fill="none" id="Routes-to-Services" style="stroke:#181818;stroke-width:1.0;"/><polygon fill="#181818" points="1312.25,899.86,1316.25,890.86,1312.25,894.86,1308.25,890.86,1312.25,899.86" style="stroke:#181818;stroke-width:1.0;"/></g><!--link Services to Domain--><g id="link_Services_Domain"><path d="M1281.95,937 C1212.13,937 1112,937 1112,937 C1112,937 1112,1018 1112,1069.31 " fill="none" id="Services-to-Domain" style="stroke:#181818;stroke-width:1.0;"/><polygon fill="#181818" points="1112,1075.31,1116,1066.31,1112,1070.31,1108,1066.31,1112,1075.31" style="stroke:#181818;stroke-width:1.0;"/></g><!--link Services to Persistence--><g id="link_Services_Persistence"><path d="M1313.5,973.29 C1313.5,1000.53 1313.5,1031.79 1313.5,1060.84 " fill="none" id="Services-to-Persistence" style="stroke:#181818;stroke-width:1.0;"/><polygon fill="#181818" points="1313.5,1066.84,1317.5,1057.84,1313.5,1061.84,1309.5,1057.84,1313.5,1066.84" style="stroke:#181818;stroke-width:1.0;"/></g><!--link Persistence to Tables--><g id="link_Persistence_Tables"><path d="M1208.88,1155 C1037.49,1155 602,1155 602,1155 C602,1155 602,1219.39 602,1259.81 " fill="none" id="Persistence-to-Tables" style="stroke:#181818;stroke-width:1.0;"/><polygon fill="#181818" points="602,1265.81,606,1256.81,602,1260.81,598,1256.81,602,1265.81" style="stroke:#181818;stroke-width:1.0;"/></g><!--link Persistence to RLS--><g id="link_Persistence_RLS"><path d="M1208.73,1152 C1008.04,1152 434,1152 434,1152 C434,1152 434,1218.7 434,1259.88 " fill="none" id="Persistence-to-RLS" style="stroke:#181818;stroke-width:1.0;"/><polygon fill="#181818" points="434,1265.88,438,1256.88,434,1260.88,430,1256.88,434,1265.88" style="stroke:#181818;stroke-width:1.0;"/></g><!--link Services to Gateways--><g id="link_Services_Gateways"><path d="M1391.67,973.29 C1391.67,1003.24 1391.67,1039.32 1391.67,1069.26 " fill="none" id="Services-to-Gateways" style="stroke:#181818;stroke-width:1.0;"/><polygon fill="#181818" points="1391.67,1075.26,1395.67,1066.26,1391.67,1070.26,1387.67,1066.26,1391.67,1075.26" style="stroke:#181818;stroke-width:1.0;"/></g><!--link Services to Storage--><g id="link_Services_Storage"><path d="M1414.09,937 C1463.12,937 1521.5,937 1521.5,937 C1521.5,937 1521.5,1094 1521.5,1094 C1521.5,1094 1539.64,1094 1567.84,1094 " fill="none" id="Services-to-Storage" style="stroke:#181818;stroke-width:1.0;"/><polygon fill="#181818" points="1573.84,1094,1564.84,1090,1568.84,1094,1564.84,1098,1573.84,1094" style="stroke:#181818;stroke-width:1.0;"/><text fill="#000000" font-family="sans-serif" font-size="13" lengthAdjust="spacing" textLength="224.7388" x="1296.5" y="1002.4551">signed, non-enumerable URLs (10.3.5)</text></g><!--link Services to SupaAuth--><g id="link_Services_SupaAuth"><path d="M1402.83,973.07 C1402.83,1001.8 1402.83,1037 1402.83,1037 C1402.83,1037 1824.25,1037 1824.25,1037 C1824.25,1037 1824.25,1050.34 1824.25,1069.38 " fill="none" id="Services-to-SupaAuth" style="stroke:#181818;stroke-width:1.0;"/><polygon fill="#181818" points="1824.25,1075.38,1828.25,1066.38,1824.25,1070.38,1820.25,1066.38,1824.25,1075.38" style="stroke:#181818;stroke-width:1.0;"/><text fill="#000000" font-family="sans-serif" font-size="13" lengthAdjust="spacing" textLength="164.728" x="1435.76" y="1033.4951">register, sign in, reset (2.1.x)</text></g><!--link Routes to SupaAuth--><g id="link_Routes_SupaAuth"><path d="M1518.12,584 C1654.8,584 1876.25,584 1876.25,584 C1876.25,584 1876.25,949.55 1876.25,1069.29 " fill="none" id="Routes-to-SupaAuth" style="stroke:#181818;stroke-width:1.0;"/><polygon fill="#181818" points="1876.25,1075.29,1880.25,1066.29,1876.25,1070.29,1872.25,1066.29,1876.25,1075.29" style="stroke:#181818;stroke-width:1.0;"/><text fill="#000000" font-family="sans-serif" font-size="13" lengthAdjust="spacing" textLength="107.6626" x="1768.25" y="647.0751">verify bearer token</text></g><!--link Jobs to Services--><g id="link_Jobs_Services"><path d="M977.52,785 C1103.43,785 1295,785 1295,785 C1295,785 1295,848.99 1295,893.83 " fill="none" id="Jobs-to-Services" style="stroke:#181818;stroke-width:1.0;"/><polygon fill="#181818" points="1295,899.83,1299,890.83,1295,894.83,1291,890.83,1295,899.83" style="stroke:#181818;stroke-width:1.0;"/><text fill="#000000" font-family="sans-serif" font-size="13" lengthAdjust="spacing" textLength="244.9561" x="1194.67" y="799.4951">IngestionController, PriorityScoringEngine,</text><text fill="#000000" font-family="sans-serif" font-size="13" lengthAdjust="spacing" textLength="122.8271" x="1255.7345" y="815.8467">AlertTriggerEvaluator</text></g><!--link Gateways to NEA--><g id="link_Gateways_NEA"><path d="M1449,1148.73 C1449,1183.43 1449,1228.7 1449,1260 " fill="none" id="Gateways-to-NEA" style="stroke:#181818;stroke-width:1.0;"/><polygon fill="#181818" points="1449,1266,1453,1257,1449,1261,1445,1257,1449,1266" style="stroke:#181818;stroke-width:1.0;"/></g><!--link Gateways to Rain--><g id="link_Gateways_Rain"><path d="M1414.75,1148.83 C1414.75,1192.95 1414.75,1261 1414.75,1261 C1414.75,1261 828.25,1261 828.25,1261 C828.25,1261 828.25,1256.91 828.25,1259.8 " fill="none" id="Gateways-to-Rain" style="stroke:#181818;stroke-width:1.0;"/><polygon fill="#181818" points="828.25,1265.8,832.25,1256.8,828.25,1260.8,824.25,1256.8,828.25,1265.8" style="stroke:#181818;stroke-width:1.0;"/></g><!--link Gateways to Forecast--><g id="link_Gateways_Forecast"><path d="M1517.54,1131 C1526.14,1131 1532,1131 1532,1131 C1532,1131 1532,1271 1532,1271 C1532,1271 1636.5,1271 1719.16,1271 " fill="none" id="Gateways-to-Forecast" style="stroke:#181818;stroke-width:1.0;"/><polygon fill="#181818" points="1725.16,1271,1716.16,1267,1720.16,1271,1716.16,1275,1725.16,1271" style="stroke:#181818;stroke-width:1.0;"/></g><!--link Gateways to OneMap--><g id="link_Gateways_OneMap"><path d="M1483.25,1148.79 C1483.25,1193.78 1483.25,1264 1483.25,1264 C1483.25,1264 1943.25,1264 1943.25,1264 C1943.25,1264 1943.25,1258.72 1943.25,1259.94 " fill="none" id="Gateways-to-OneMap" style="stroke:#181818;stroke-width:1.0;"/><polygon fill="#181818" points="1943.25,1265.94,1947.25,1256.94,1943.25,1260.94,1939.25,1256.94,1943.25,1265.94" style="stroke:#181818;stroke-width:1.0;"/></g><!--link Gateways to Telegram--><g id="link_Gateways_Telegram"><path d="M1517.64,1112 C1543.6,1112 1567,1112 1567,1112 C1567,1112 1567,1221.82 1567,1268.42 " fill="none" id="Gateways-to-Telegram" style="stroke:#181818;stroke-width:1.0;"/><polygon fill="#181818" points="1567,1274.42,1571,1265.42,1567,1269.42,1563,1265.42,1567,1274.42" style="stroke:#181818;stroke-width:1.0;"/></g><!--link Scheduler to GMN53--><g id="link_Scheduler_GMN53"><path d="M1002.1383,798 C1016.9373,798 1032.1532,798 1047.7394,798 C1110.0843,798 1178.3547,798 1249.5738,798 C1534.45,798 1866.505,798 2055.22,798 " fill="none" id="Scheduler-GMN53" style="stroke:#181818;stroke-width:1.0;stroke-dasharray:7.0,7.0;"/></g><!--link AC to GMN56--><g id="link_AC_GMN56"><path d="M1465.75,780.52 C1465.75,821.7 1465.75,883 1465.75,883 C1465.75,883 1504.21,883 1550.48,883 " fill="none" id="AC-GMN56" style="stroke:#181818;stroke-width:1.0;stroke-dasharray:7.0,7.0;"/></g><!--link Persistence to GMN59--><g id="link_Persistence_GMN59"><path d="M1273.5,1157.3 C1273.5,1200.5 1273.5,1259 1273.5,1259 C1273.5,1259 635.19,1259 328.19,1259 " fill="none" id="Persistence-GMN59" style="stroke:#181818;stroke-width:1.0;stroke-dasharray:7.0,7.0;"/></g><!--link External to GMN62--><g id="link_External_GMN62"><path d="M721,1345.1882 C721,1345.8247 721,1346.4637 721,1347.105 C721,1348.3877 721,1349.6797 721,1350.9793 C721,1353.5784 721,1356.2082 721,1358.8552 C721,1369.4431 721,1380.3075 721,1390.6 " fill="none" id="External-GMN62" style="stroke:#181818;stroke-width:1.0;stroke-dasharray:7.0,7.0;"/></g><!--SRC=[VLVjRYkt4VslfnZupvLmfOqbntRi11UGVPrR1uxjMcg20W82QfVQ9RmYjoJNib04w4Fq7VeUVPG-IS-Gkv9MkUqVMqlE33bdpdpm0tqU_IXrAka___WdpRREopK9cnRAozJNLbB_GIpfZ39PgZTfnRAKD1bI9Qodiq7l0ytgfOjgcKpDkZ9EUMKq2PrXfIhDTYsrXuQqT6DhcUUIqYAXYo1ncR09lotbDVd2IZdo2e9fgQ3qZPCMPz96-O84EObJXPVaqa9cTQbqJfKrgNGkwVNSgzAyloPNYCniU7SbIYSFTiBzD2o74yd2HQ7pyb04LgNVLfACzONfzRJ999tSMBF1PQX_MrYpblGDtMKv_vk9bR1giD1d5wUZyTNabAht8OrFayjatFoVd91mr5huUu_srw2J5lrVvP9kWzCB_I95wcdy7NsaEMuoIwsgF3v-GKo2hIWOJ7MCGL9AxQW_kSADVlXXQMgT2Rlzz2ceDTl7MY-c1gPVQc6pXRO6k8m-SRJModkP0QGSuGm6Wion-lJvVdVpbVHfWPl-hPPsIwb0d8BYj59Hv5ZvPr71BRbPw0SfLgLaDv-qv6MlIkc2DhvO1hg_ztvl8pAjgbAb8b1j5cYoq8-yWn1yfBltoe8M7GIRcrHH-ZWGVvhFd-cc0OnnO50AKBIKrWtfy_o9taIfid3YLy0DABgkpMdAtAHReprmNUZutNpoDHGYtvyaPyb5Y5SQTngBqziZgfYrKD5PwBc5XgUD1l95ECThnqPQwQ-Q-XbuuLgJIyAgyjj3Ct6biHBbkpQUWOj2teEzW4k6l3TMIGPzzkU7XLPwj9Ph0o8uR4IhrLwfCNrWfcl_xjrBgqL9Nv3o6x65_YM9J5HOTby9G2ksfyWibWd4-ZbMYONcZL5gZHwI4yXZjHQvR9AZ5JuYnhtEfGiq-yaiOS822TILaivfhM0dBMl7LwB2rBRS3f45y3OLpgF45KE24c8GQEDeyYsM5je01m5GGd8v3uY41qgegNKLRiD7iIEWcrWA1sUUZVEvbK2MnkU0cB-_tCyMkZ-hgo0pYA6wENRWHPRXT43fkNp3Xu_aAgnXHUbClZTvDW-xHyfcCtgGRx84azBQWX8BQAn2pGA3KE1z4Vd_CECBfwMfCq3Vt8dMGWFXZ5p3muWrTc-3uD5LTshJsXSBZNgLCGzHnOU4d5Mh9kE7p3Y7Qe5g_OezSDOnlZlhhFy_JC-0EwuKEMkvuCWtbGM7gi9u0tWggzwupophz5LwHqQNssWwwXuukcCfHueSAD0wkTivyl7nRWhOT5xB7NKM-eiqFysU7eCY1BeQR3h9pLlYSchPjz3deq2_gqicZjzv__A7H3rKP_vHoq_OG7oG3QDOuwE17vlThf5Ob1Tw9daueFwhH0DrRW3uzeKw2dKLrQF0687AYNmuJ0MKdGdu-2w6W4uXRoWq_Xjq7kUZkNke_X6xDpHjP4vR-TfKudWskJIYoTKfSRyTHcpIOEwNswUkjRaiPSuz_yPuGXkBIT0iSepRVZf2GuozB_mDt_kMrhIdezNThx0UkmDT4xUP6UO6ZZRrCH-S9PF1paIIV6hRttN05GK2lHI0K7yP1uXHfdXi6VHwZSrmx2ta1JYF0WoA8ry1GwFQmoRBx3h1WTvkhVqHLfjgtraxBDC7lyDUKpUEbxaYT6piAdHdjSafEE1KhcKs96tqIEfwtKoRVtbvS0rKvuCZtIRLeHoZB-qmc25EZLWYq5_7oVkWu_PUBLILBIr1Qx3FcrUfUpsklXry8BXh0qtxBlcePwiCryHPYdywlzCvfaSKfobs_TmgpBhs3cD3pGpjjVu7qvpbdOMGk9sLNIPsLfiawwpjI8lEXxg5WmjasshVr43ywNv-RePcHjfZhlOAK0CnXpA88LpIHYwX48VlXEOR0oY5Gz9UyqIBUILm2pnqq6gxepVGmHBYnbG4Xv1ug5JeRIl41UTWarlSa3Q5GWrHt6gSMbVST3U5r8TplNBXSgW96Iplk1nl1O7lm-i15RSqcuDBfDiKZ5cZhB9wI7STRiHkDKR2EqDa3l_HTU7GE9cmDKY7Z_EWvBdI9Zs9KnZJ1jcbyV2CeGtJsTrXek5DnCCJcpTrNb0XyNfQIgwsCBzjxuxiiBLs2OMvBxWHkBq3jG5-nE60akHv8fNyYFgUSuhRBdkp6msK2zyEhw_WH2cspCq07zPNoZfWlWILQhS70WUnoHW5WLdADrRuxBrs6DqIY7HQSwWrt9dHZk4nFnqLcAJTXWUXaqrXebrVA7UI11MkJB5tqybQRDduzYJKPt2OeRgcV_yBa40B3cqiFpvqU3JoasGOS0ftvmSA9D1ftVy9JtUiV6d7qsr49w5PC__WcP0rNlHdyzyukH5tDsIFvxzz_XKlJoub_1lc1CmD20DJog-3eq2m3iE6PN7mE4anSY9la3RdGpe3lxuBlfpZ5-PPozVJN7sS7sc9n4KeR92eZD9-X2cwCkKsXoL-LM6-FlJwsErsw83HjzFaAg73zjiGvUdnuQ_4ZtbQISukpWBvhhZ9W6aDLRaBau6uPO7ewDeuy0RPECBfD4FMYOh9ZTa2XmOseOkoSht4WGKmJKtwQWtUWQZ6WbbeXCNBcfmMhyn3di20V9pj9BDNv8m_o8G9-zlX1MRTm_c5VwEeetHDJYSNezEhqVXYmFISutveyFk16ixEvjFv_IsMLg0NTwKme_N7oKLoEHXIBWt7XWyrlDlcRIom7nmrCmvo8imyG3s4v03__m80]--></g></svg>